<svg xmlns="http://www.w3.org/2000/svg" viewBox="0 0 1167 2119.32"><defs><style>.cls-1{fill:#fff9ec;}.cls-2{fill:#a09c93;}.cls-3{fill:#605950;}</style></defs><title>Fichier 4</title><g id="Calque_2" data-name="Calque 2"><g id="Calque_1-2" data-name="Calque 1"><path class="cls-1" d="M1167,1680.26a46.45,46.45,0,0,0-17.49-36.16,33.58,33.58,0,0,0-2.3-5.14,15.44,15.44,0,0,0-2.54-24.36,18.68,18.68,0,0,0,4.78-12c0-8-5.88-15.19-15.2-20.12,9.26-6.68,15.2-16.92,15.2-28.42a33.31,33.31,0,0,0-4.78-17.15c4.45-4.85,7.36-12.66,7.36-21.5,0-14.5-7.78-26.27-17.46-26.6,0-.5,0-1,0-1.49,0-3.31-.1-6.54-.26-9.68a47.18,47.18,0,0,0,2.8-74.49,34.45,34.45,0,0,0-2.23-5.14,15.78,15.78,0,0,0-2.45-24.36,19,19,0,0,0,4.62-12c0-8-5.67-15.19-14.67-20.12a37.84,37.84,0,0,0,6-5.58c11.66-5.76,20.1-22.54,20.1-42.35,0-11.57-2.88-22.11-7.6-30a47.18,47.18,0,0,0,9.23-78.37,34.45,34.45,0,0,0-2.23-5.14,15.78,15.78,0,0,0-2.45-24.36,19,19,0,0,0,4.62-12c0-8-5.67-15.19-14.67-20.12a35.48,35.48,0,0,0,14.67-28.42,34.25,34.25,0,0,0-4.61-17.15c4.29-4.85,7.09-12.66,7.09-21.5,0-14.5-7.5-26.27-16.84-26.6,0-.5,0-1,0-1.49a171.59,171.59,0,0,0-1.86-25.92,52.28,52.28,0,0,0,11.68-17.55c-3.79-.19-7.59-.35-11.39-.45-37.07-1-74.11,1.47-111.12,3-38.1,1.55-76.25,1.07-114.37,1.58-39.18.53-78.36,1.3-117.54,1.7-37.92.39-75.51.21-113.3-3.39-37.56-3.57-75-8.78-112.7-10.84a605.88,605.88,0,0,0-76.11.8q70.38-7,140.72-14.43c53.49-5.56,107-11.49,160.53-16.42,50.87-4.68,102.44-3,153.24,1.74,69.06,6.46,137.2,19.2,205.42,31.46a47.08,47.08,0,0,0-16.79-33.43,34.45,34.45,0,0,0-2.23-5.14,15.78,15.78,0,0,0-2.45-24.36,19,19,0,0,0,4.62-12.05c0-8-5.67-15.19-14.67-20.12a37.84,37.84,0,0,0,6-5.58c11.66-5.76,20.1-22.54,20.1-42.35,0-11.57-2.88-22.11-7.6-30a47.18,47.18,0,0,0,9.23-78.37,34.45,34.45,0,0,0-2.23-5.14,15.78,15.78,0,0,0-2.45-24.36,19,19,0,0,0,4.62-12.05c0-8-5.67-15.19-14.67-20.12A35.48,35.48,0,0,0,1145.07,638a34.25,34.25,0,0,0-4.61-17.15c4.29-4.85,7.09-12.66,7.09-21.5,0-14.5-7.5-26.27-16.84-26.6,0-.5,0-1,0-1.49a171.59,171.59,0,0,0-1.86-25.92c9.89-9.64,16.21-24.34,16.21-40.82,0-15.74-5.77-29.85-14.9-39.49a38.75,38.75,0,0,0,.55-6.4c0-27.48-29.12-49.75-65-49.75A78.5,78.5,0,0,0,1026.45,419a17.15,17.15,0,0,0,.89-5.42c0-14.37-18.26-26-40.8-26a61.25,61.25,0,0,0-15.28,1.9C968,368.27,949,352,925.9,352a47.11,47.11,0,0,0-27.29,8.59,32.58,32.58,0,0,0,1.18-8.71c0-18.88-16-34.18-35.83-34.18a37.6,37.6,0,0,0-10,1.36c.13-1.43.21-2.88.21-4.35,0-27.58-23.72-49.94-53-49.94a54.81,54.81,0,0,0-31.31,9.67,28.52,28.52,0,0,0,.44-5c0-14.54-11-26.76-26-30.3a51.62,51.62,0,0,0-57.76-77.57,27.13,27.13,0,0,0-12.84-3.49c-5.06-8.94-16.68-15.19-30.22-15.19-1.31,0-2.59.06-3.85.17-1.31-9.72-7.23-17.06-14.36-17.09a22.74,22.74,0,0,0-18.68-18.5A47.37,47.37,0,0,0,608.5,94c0-.39,0-.78,0-1.17,5.1-1,9-7.27,9-14.83,0-5.73-2.25-10.7-5.55-13.23,3.27-2.13,5.55-6.82,5.55-12.27s-2.19-9.94-5.36-12.13A15.7,15.7,0,0,0,613.5,34c0-.55,0-1.1-.09-1.64a10.06,10.06,0,0,0,6.31-2.17c5.36-4.35,4.9-13.78-1-21.07S603.64-.55,598.28,3.81c-3.18,2.58-4.29,7-3.46,11.59A29.21,29.21,0,0,0,590,15a27.8,27.8,0,0,0-11.32,2.35,23.5,23.5,0,1,0-42.11,19.37,19.48,19.48,0,0,0-3.64,28.16A27.82,27.82,0,0,0,523.5,86a27.47,27.47,0,0,0,12.13,23.15,25.09,25.09,0,0,0-3.29,12.36,24.66,24.66,0,0,0,.67,5.72,25.57,25.57,0,0,0-21.56,45.92c-.69,0-1.37-.07-2.06-.07-15.59,0-28.35,8.15-29.63,18.53a71.56,71.56,0,0,0-19.14-2.6c-36.93,0-66.88,27.79-66.88,62.06,0,.78,0,1.56.07,2.33a32.42,32.42,0,0,0-4.43-.31,31.94,31.94,0,0,0-31.9,30.45,101.11,101.11,0,0,0-45-10.34c-42.26,0-77.66,25-87,58.55a72.92,72.92,0,0,0-28-5.53c-38.78,0-70.22,30-70.22,67a64.92,64.92,0,0,0,.81,10.21,54.29,54.29,0,0,0-5.58-.29c-32.21,0-58.32,27.27-58.32,60.9A62.08,62.08,0,0,0,80.8,506.54c-5.58,4.38-9.28,11.9-9.28,20.44a27.5,27.5,0,0,0,3.89,14.27c-8.79,7.91-14.31,18.08-14.91,29.4-1,18.66,11.61,35.62,31.05,45.17-7.35,7.1-11.64,15.67-11.64,24.89a31.84,31.84,0,0,0,5.74,17.88,18.68,18.68,0,0,0-5.74,13.13c0,7.18,4.49,13.52,11.39,17.44a47.19,47.19,0,0,0-25.91,82.53,50.68,50.68,0,0,0-8.7,12.59,64.49,64.49,0,0,0-7.37,15.78l-.68,0c.09.37.21.74.31,1.11A62,62,0,0,0,46.5,818.5a63.47,63.47,0,0,0,12,36.91,53.49,53.49,0,0,0,3.22,4.88A50.79,50.79,0,0,0,57.5,881c0,11.84,3.65,22.34,9.28,28.9a47.18,47.18,0,0,0-14.39,79.79,55.55,55.55,0,0,0-12,20.53l.43,0A48.55,48.55,0,0,0,37,1029c0,27.06,22.44,49.5,51.85,53.76a31,31,0,0,0-3.94,15,31.84,31.84,0,0,0,5.74,17.88,18.68,18.68,0,0,0-5.74,13.13c0,7.18,4.49,13.52,11.39,17.44a47.19,47.19,0,0,0-25.91,82.53,50.68,50.68,0,0,0-8.7,12.59,64.49,64.49,0,0,0-7.37,15.78l-.68,0c.09.37.21.74.31,1.11a62,62,0,0,0-2.45,17.29,63.47,63.47,0,0,0,12,36.91,53.49,53.49,0,0,0,3.22,4.88A50.79,50.79,0,0,0,62.5,1338c0,11.84,3.65,22.34,9.28,28.9a47.2,47.2,0,0,0-30.55,41.71c-9.11,1.14-16.23,11-16.23,22.89,0,11,6,20.17,14.09,22.45a25.3,25.3,0,0,0,1.75,3.3c-9.11,7.91-14.83,18.08-15.45,29.4-1,18.66,12,35.62,32.18,45.17-7.62,7.1-12.07,15.67-12.07,24.89a31,31,0,0,0,6,17.88,18.38,18.38,0,0,0-6,13.13c0,7.18,4.66,13.52,11.81,17.44-24.55,2.52-43.68,22.56-43.68,46.92a46.4,46.4,0,0,0,16.83,35.61,50.51,50.51,0,0,0-9,12.59,64,64,0,0,0-7.65,15.78l-.7,0c.1.37.22.74.33,1.11a59.92,59.92,0,0,0-2.54,17.29,62,62,0,0,0,12.41,36.91,54.35,54.35,0,0,0,3.34,4.88A49.36,49.36,0,0,0,22.28,1797c0,11.84,3.78,22.34,9.62,28.9C13.36,1832.61.16,1849.85.16,1870.08A46.29,46.29,0,0,0,15,1903.89C6.5,1906.45,0,1921.64,0,1940c0,12.1,2.82,22.81,7.17,29.45,3.28,14.46,10.36,26.26,19.43,32.71a23.2,23.2,0,0,0,16.55,36.35,20,20,0,0,0,27.93,27.24c10.71,13.25,25.41,21.44,41.65,21.44a49.38,49.38,0,0,0,25.87-7.46,27.15,27.15,0,0,0,46.67,15.38c6.24,3.71,15.38,6.06,25.58,6.06,12,0,22.53-3.25,28.6-8.15a26,26,0,0,0,28,0,54,54,0,0,0,23.28,5.33c15.31,0,29.42-6.58,40.74-17.65A38.42,38.42,0,0,0,407,2090.87c8,4.62,18.93,7.46,30.95,7.46,11,0,21-2.37,28.8-6.3a23.32,23.32,0,0,0,28.39,2.7c4.24,7.05,14.24,12,25.92,12,12,0,22.31-5.3,26.29-12.72a35.86,35.86,0,0,0,15.24,4.26,34.62,34.62,0,0,0,22.8-6.74c11.67,13.39,31.83,22.24,54.77,22.24,20.91,0,39.51-7.36,51.48-18.8a49.36,49.36,0,0,0,54.75.66c10.18,10.67,33.84,18.14,61.41,18.14,27,0,50.16-7.15,60.7-17.43a87.45,87.45,0,0,0,11.44.76c34,0,62-19.55,66.72-45a78.73,78.73,0,0,0,17.55,2c34.28,0,62.64-21.83,67.38-50.22a47.34,47.34,0,0,0,60.59-26.14,30,30,0,1,0,42.12-42,46.15,46.15,0,0,0,1.73-73.65,33.6,33.6,0,0,0-2.31-5.14,15.45,15.45,0,0,0,4.82-11.19,15.61,15.61,0,0,0-7.36-13.17,18.64,18.64,0,0,0,4.79-12c0-8-5.88-15.19-15.2-20.12a39,39,0,0,0,6.22-5.58c12.08-5.76,20.83-22.54,20.83-42.35,0-11.57-3-22.11-7.88-30C1156,1714.73,1167,1698.74,1167,1680.26ZM450.51,981c-37,4.57-73.87,10.71-111.19,12.11q-13,.48-26.08.4Q381.91,987.76,450.51,981Z"/><ellipse class="cls-2" cx="275" cy="1912.5" ry="9"/><path class="cls-1" d="M557.85,210.64s-42.65-27.75-44.84,19c0,0-48.93-19-26.29,22.64,0,0-45.28-8-34.32,23.37"/><path class="cls-3" d="M452.4,275.64l-.34-.95-.41-1.16a12.78,12.78,0,0,1-.48-1.62,22.79,22.79,0,0,1-.8-4.65c0-.47,0-.95,0-1.46s.08-1,.12-1.56a7.78,7.78,0,0,1,.1-.81l.2-.83.21-.86c.08-.28.21-.56.32-.84a13.57,13.57,0,0,1,5.1-6.21,25.87,25.87,0,0,1,8.67-3.52,52.2,52.2,0,0,1,10.4-1.12c1.83,0,3.71,0,5.61.13l2.52.18H484c0-.08-.12-.19-.17-.27l-.08-.12,0-.06-.23-.44c-.61-1.22-1.2-2.48-1.76-3.77a35.58,35.58,0,0,1-2.53-8.4,16.71,16.71,0,0,1-.07-4.8,9.83,9.83,0,0,1,2.07-4.83,10.18,10.18,0,0,1,4.35-3,17.68,17.68,0,0,1,4.88-1,42.42,42.42,0,0,1,12.35,1.19c1.93.43,3.79.94,5.58,1.49.9.27,1.78.56,2.64.85l.33.11,0,0,0,0,.1.05a.68.68,0,0,0,0-.12v-.07l0-.22.08-.88c.09-1.17.34-2.32.5-3.46a34.36,34.36,0,0,1,.72-3.38,25.86,25.86,0,0,1,1-3.25,28.18,28.18,0,0,1,2.87-6,19.33,19.33,0,0,1,4.34-4.7,18.49,18.49,0,0,1,10.81-3.7,31.78,31.78,0,0,1,9.53,1.27,56.05,56.05,0,0,1,12.37,5.26,47.13,47.13,0,0,1,4.08,2.54s-1.45-.87-4.27-2.19a59,59,0,0,0-12.5-4.3,31,31,0,0,0-9.09-.69,16.61,16.61,0,0,0-9.4,3.72,17.16,17.16,0,0,0-3.58,4.23,29.32,29.32,0,0,0-3.17,8.5,29.55,29.55,0,0,0-.57,3.17c-.12,1.08-.34,2.16-.38,3.28-.13,1.85-.27,3.73-.4,5.61l-2.41-.9-1.22-.43-.9-.3-2.55-.77q-2.61-.75-5.36-1.34a41,41,0,0,0-11.31-1c-2.75.22-5.37,1-6.78,2.76s-1.69,4.32-1.34,6.89a33.2,33.2,0,0,0,2.15,7.64c.49,1.23,1,2.45,1.58,3.63l.62,1.3.86,1.66c.55,1.08,1.11,2.15,1.66,3.21-1.89-.33-3.78-.68-5.5-.91l-1.77-.22-1.38-.14c-1.83-.19-3.64-.3-5.4-.34a51.66,51.66,0,0,0-10,.6,24.91,24.91,0,0,0-8.22,2.79,12.36,12.36,0,0,0-4.92,5.3c-.12.25-.26.49-.36.75l-.24.77-.24.76a7,7,0,0,0-.14.75c-.08.51-.2,1-.23,1.47s0,.95-.06,1.39a23.44,23.44,0,0,0,.43,4.6,13.27,13.27,0,0,0,.35,1.64l.3,1.18Z"/><path class="cls-1" d="M758.87,316.35s41.37-13.42,38,25.71"/><path class="cls-3" d="M796.89,342.06s-.06-.8-.16-2.26c0-.36-.05-.76-.08-1.2s-.11-.91-.17-1.42-.13-1.05-.19-1.62-.22-1.16-.33-1.79a26.71,26.71,0,0,0-2.82-8.17,17.63,17.63,0,0,0-7.12-7,27.69,27.69,0,0,0-9.95-2.88,54.74,54.74,0,0,0-8.88-.25c-2.56.12-4.64.36-6.08.54s-2.24.33-2.24.33.73-.36,2.1-.88a45,45,0,0,1,6-1.77,39.35,39.35,0,0,1,9.31-1,24.93,24.93,0,0,1,11.47,2.74,18.29,18.29,0,0,1,8.13,8.8,24,24,0,0,1,1.88,9.33c0,.67,0,1.31,0,1.9s-.09,1.16-.13,1.68-.09,1-.13,1.46-.14.84-.2,1.21Z"/><path class="cls-1" d="M199.86,387.44s53.16-57.25,79.05-25.9c0,0,16.36-77.69,79-33.45"/><path class="cls-3" d="M358,328.09,356.22,327l-2.12-1.29c-.84-.49-1.76-1.14-2.9-1.7l-3.73-2c-.34-.17-.68-.37-1.05-.54L345.3,321l-2.38-1a60.39,60.39,0,0,0-11.52-3.64,38.52,38.52,0,0,0-14.35-.12,32.67,32.67,0,0,0-14.65,6.93l-1.69,1.39c-.52.51-1,1-1.59,1.54-.26.26-.54.51-.8.78l-.75.84c-.5.56-1,1.12-1.51,1.7a65.93,65.93,0,0,0-5.38,7.64,89.39,89.39,0,0,0-8.1,18.05c-.39,1.2-.76,2.4-1.09,3.56l-.42,1.6c-.14.57-.29,1.09-.42,1.7l-.76,3.4-1.65-1.89-.82-.94-.74-.8-1.46-1.56-.86-.77a22.08,22.08,0,0,0-3.61-2.59,20.2,20.2,0,0,0-4-1.8,21.88,21.88,0,0,0-4.2-1c-5.71-.78-11.43.39-16.58,2.12a81.1,81.1,0,0,0-14.1,6.56,134.18,134.18,0,0,0-11.42,7.44,193.56,193.56,0,0,0-15.35,12.37c-3.46,3.1-5.27,4.91-5.27,4.91s1.66-1.95,4.92-5.28a167.71,167.71,0,0,1,14.69-13.34,126.81,126.81,0,0,1,11.23-8.08,79.71,79.71,0,0,1,14.33-7.3c5.35-2,11.46-3.45,18-2.7a24.18,24.18,0,0,1,4.84,1,23.34,23.34,0,0,1,4.63,2,24.94,24.94,0,0,1,4.2,2.94l1,.84.24.24.11.11h0c0-.05,0,.09.05-.22.34-1.21.72-2.45,1.12-3.7a87.1,87.1,0,0,1,8.58-18.73,66.39,66.39,0,0,1,5.84-8c.54-.61,1.1-1.19,1.65-1.77l.82-.88c.29-.28.59-.54.88-.81l1.75-1.61c.61-.5,1.24-1,1.85-1.45a34.72,34.72,0,0,1,16.1-7,39.93,39.93,0,0,1,15.16.78A60,60,0,0,1,343.4,319l2.34,1.2,1.1.57c.36.19.69.41,1,.61l3.63,2.22c1.1.63,2,1.36,2.79,1.91s1.48,1,2,1.44Z"/><path class="cls-1" d="M989.6,453.08s125.49-26.77,94.65,34c0,0,59.06,2.65,12.12,62.11"/><path class="cls-3" d="M1096.37,549.21l3.72-5.27a113.13,113.13,0,0,0,8.88-15.42,52.92,52.92,0,0,0,3.85-11.67,27.44,27.44,0,0,0,.45-6.75,18.68,18.68,0,0,0-1.61-6.85c-1.89-4.46-6-8-10.9-10.31a41.18,41.18,0,0,0-7.92-2.78c-1.4-.35-2.82-.63-4.27-.86l-1.09-.16-1.26-.15c-1.46-.17-3-.25-4.62-.33.61-1.3,1.24-2.62,1.88-4l.48-1,.25-.59.47-1.16c.34-.77.61-1.57.89-2.38s.52-1.63.75-2.47a29.45,29.45,0,0,0,.93-5.14,20.94,20.94,0,0,0-.24-5.19,16.45,16.45,0,0,0-1.69-4.61,17,17,0,0,0-3.06-3.8,27.31,27.31,0,0,0-8.53-5.1,72.36,72.36,0,0,0-19.16-4.06,165,165,0,0,0-18-.6c-5.68.1-11,.4-15.79.76-9.65.74-17.44,1.74-22.81,2.49s-8.33,1.27-8.33,1.27,2.91-.74,8.23-1.83,13.07-2.52,22.73-3.72c4.83-.59,10.15-1.11,15.88-1.42a154.25,154.25,0,0,1,18.37,0A72.48,72.48,0,0,1,1075,450a30.24,30.24,0,0,1,9.7,5.7,19.88,19.88,0,0,1,3.75,4.63,19.65,19.65,0,0,1,2.12,5.71,24.22,24.22,0,0,1,.28,6.17,32.36,32.36,0,0,1-1.08,5.77c-.26.92-.51,1.83-.84,2.69s-.61,1.73-1,2.55c-.18.41-.35.82-.52,1.22l-.25.58-.06.12-.25.47.1,0,1,.15,1.16.19c1.54.27,3.05.6,4.53,1a43.88,43.88,0,0,1,8.47,3.19,28.7,28.7,0,0,1,7.18,5.06c.5.53,1,1,1.47,1.58s.89,1.13,1.31,1.7l1.09,1.82c.35.6.58,1.27.87,1.89a20.74,20.74,0,0,1,1.55,7.77,29,29,0,0,1-.78,7.26,10.49,10.49,0,0,1-.43,1.67l-.48,1.62a28.52,28.52,0,0,1-1.11,3.07,59.44,59.44,0,0,1-2.52,5.53,103.51,103.51,0,0,1-9.83,15Z"/><ellipse class="cls-2" cx="1032.5" cy="1034" rx="39.5" ry="5.5"/><ellipse class="cls-1" cx="1114.5" cy="976.5" rx="36.5" ry="29"/><path class="cls-2" d="M1089.45,636.92c9.34-6.07,15.74-18.42,15.74-32.67,0-17.2-9.32-31.62-21.89-35.59.1-1.11.17-2.23.17-3.37a37.86,37.86,0,0,0-13.12-28.64,23.22,23.22,0,0,0,.49-4.65c0-19.92-25.63-36.08-57.26-36.08a89.6,89.6,0,0,0-10.2.59c-1-11.11-12.63-19.87-26.78-19.87a30.84,30.84,0,0,0-17.85,5.45,66.22,66.22,0,0,0-28.27-.3c-2.72-14.61-18.1-26-37.09-27-4.58-4.51-13.36-7.57-23.45-7.57-1.27,0-2.51.07-3.74.16-3.93-10.17-16-17.57-30.17-17.57a39.78,39.78,0,0,0-8.84,1,27.5,27.5,0,0,0,.19-3.16c0-20-20.87-36.22-46.63-36.22l-.56,0a23.4,23.4,0,0,0,6.21-15.51c0-15.66-17.07-28.36-38.13-28.36a50.15,50.15,0,0,0-10.54,1.11c-2.34-18.88-21.69-33.6-45.21-33.6a54.52,54.52,0,0,0-12.66,1.48,27.9,27.9,0,0,0-11.3-2.53c-4.45-6.48-14.69-11-26.61-11-1.14,0-2.27.05-3.38.13-1.16-7.05-6.37-12.38-12.64-12.4-1.64-7.75-9.82-13.64-19.69-13.64a23.38,23.38,0,0,0-8.35,1.52c-4.59-6.79-14.27-11.46-25.47-11.46-15.63,0-28.3,9.1-28.3,20.32a14.74,14.74,0,0,0,.59,4.14,27.07,27.07,0,0,0-6.88-.89c-8.26,0-15.46,3.68-19.38,9.14a35.8,35.8,0,0,0-3.89-.21c-18.37,0-33.25,13.35-33.25,29.82a26.68,26.68,0,0,0,.93,7c-.42,0-.83,0-1.25,0-23.56,0-43.87,10.58-53.28,25.87a33.25,33.25,0,0,0-53,37.87,109,109,0,0,0-24.07-2.67c-37.21,0-68.36,18.12-76.58,42.47a76.07,76.07,0,0,0-24.6-4c-25.17,0-46.81,11.84-56.45,28.82-3.76-5.9-9.26-9.64-15.4-9.64-11.34,0-20.53,12.69-20.53,28.36a37,37,0,0,0,2.43,13.38c-16.29,7.41-27.4,22.12-27.4,39.08,0,12,5.56,22.84,14.57,30.8a17.65,17.65,0,0,0-8.17,14.83,17.45,17.45,0,0,0,3.42,10.35c-7.73,5.74-12.59,13.11-13.12,21.33-.5,7.69,2.88,15,9,21.12-5.74,8.61-9.52,23.21-9.52,39.79,0,12.59,2.18,24,5.75,32.59-9.31,6.28-15.25,15.81-15.25,26.49,0,10.31,5.54,19.55,14.29,25.83-8.63,7.36-14.29,19.71-14.29,33.71a48.82,48.82,0,0,0,3.78,19c-6.37,5.44-10.32,12.11-10.79,19.47-.5,7.69,2.88,15,9,21.12-5.74,8.61-9.52,23.21-9.52,39.79,0,12.59,2.18,24,5.75,32.59-9.31,6.28-15.25,15.81-15.25,26.49,0,10.31,5.54,19.55,14.29,25.83-8,6.83-13.44,17.94-14.19,30.69l.35,0a34.49,34.49,0,0,0,14.9,42.07,93.24,93.24,0,0,0-3.85,27.35c0,12.59,2.18,24,5.75,32.59-9.31,6.28-15.25,15.81-15.25,26.49,0,10.31,5.54,19.55,14.29,25.83-8.63,7.36-14.29,19.71-14.29,33.71a48.82,48.82,0,0,0,3.78,19c-6.37,5.44-10.32,12.11-10.79,19.47-.5,7.69,2.88,15,9,21.12-5.74,8.61-9.52,23.21-9.52,39.79,0,12.59,2.18,24,5.75,32.59-9.31,6.28-15.25,15.81-15.25,26.49,0,10.31,5.54,19.55,14.29,25.83-8.63,7.36-14.29,19.71-14.29,33.71a49.06,49.06,0,0,0,3.33,17.9l2.25.11q-.37,3.77-.38,7.7c0,17.72,5.8,33.18,14.43,41.5a28.3,28.3,0,0,0-.57,6.78,29,29,0,0,0,3.58,12.81,78.46,78.46,0,0,0-2.19,22.68c.51,13,3.66,24.4,8,30.87a42.87,42.87,0,0,0-5.86,23.85,42,42,0,0,0,10,26.13c-9.1,6.42-15,19-14.45,33.25.42,10.87,4.54,20.47,10.72,27a29.74,29.74,0,0,0,4,10.26c-13.63,6.09-22.72,18.16-22.19,31.7a28.89,28.89,0,0,0,3.57,12.8,78.53,78.53,0,0,0-2.19,22.69c.51,13,3.66,24.4,8,30.86a42.9,42.9,0,0,0-5.87,23.85,42,42,0,0,0,10,26.13c-9.09,6.43-15,19-14.45,33.26.67,17.18,10.54,31.24,23.25,34.7,0,1.12-.07,2.24,0,3.38a37.47,37.47,0,0,0,.75,6.14c0,1.09,0,2.19.08,3.29,1.12,17.25,12.3,32.6,30.47,44.7a35.54,35.54,0,0,0,12.74,14.56,15.29,15.29,0,0,0-3.48,9.59c0,8.68,7.55,15.82,17.24,16.74a13,13,0,0,0-2.39,7.47c0,8,7.47,14.53,16.69,14.53a18.48,18.48,0,0,0,8.94-2.27,47.26,47.26,0,0,0,32.63,15.47c2,10.6,12.65,18.68,25.5,18.68a27.9,27.9,0,0,0,18.58-6.81c.62,0,1.25.08,1.88.08a24.22,24.22,0,0,0,16.39-6.16c5.19,2.69,12.8,4.39,21.28,4.39,10,0,18.74-2.35,23.79-5.9a24.3,24.3,0,0,0,23.3,0,50.1,50.1,0,0,0,25.68,3.45c4.18,9,14.44,15.32,26.45,15.32A31.93,31.93,0,0,0,432,2043.1a35.78,35.78,0,0,0,22.48,4c12.75-1.84,22.47-10,25.63-20.22,6.68,3.34,15.75,5.4,25.74,5.4a70.33,70.33,0,0,0,7.79-.45c8.48,9.24,27.08,15.65,48.69,15.65,21.28,0,39.67-6.22,48.32-15.23a31.71,31.71,0,0,0,17.85-4.89c9.7,9.7,26.48,16.11,45.56,16.11,17.39,0,32.86-5.33,42.82-13.62a46.16,46.16,0,0,0,45.54.48c8.47,7.72,28.15,13.14,51.08,13.14,22.43,0,41.73-5.18,50.49-12.63a82.4,82.4,0,0,0,9.52.56c28.25,0,51.61-14.17,55.5-32.59a74.51,74.51,0,0,0,14.59,1.43c28.52,0,52.11-15.81,56-36.37a44.6,44.6,0,0,0,14,2.24c21.75,0,39.38-15.36,39.38-34.3a30.54,30.54,0,0,0-3.64-14.41c9.43-4,16.72-11.17,20.08-19.93l.69,0a38.62,38.62,0,0,0,1.27-11.4c-.47-12-6.45-22.6-15.76-30.2a17.67,17.67,0,0,0,7.58-15.14,17.35,17.35,0,0,0-3.82-10.2c7.51-6,12.07-13.6,12.28-21.83.19-7.71-3.47-14.87-9.85-20.76,5.4-8.82,8.61-23.56,8-40.13-.49-12.58-3.12-23.94-7-32.34,9-6.64,14.61-16.39,14.2-27.06-.41-10.31-6.3-19.32-15.29-25.25,8.33-7.7,13.51-20.26,13-34.25a48.78,48.78,0,0,0-4.51-18.83c6.15-5.69,9.83-12.51,10-19.88.19-7.71-3.47-14.86-9.85-20.76,5.4-8.82,8.61-23.56,8-40.12-.49-12.59-3.12-23.94-7-32.35,9.06-6.63,14.62-16.39,14.2-27.06-.4-10.3-6.29-19.32-15.28-25.25,8.33-7.7,13.51-20.26,13-34.25a49.78,49.78,0,0,0-1.52-10.43,60.28,60.28,0,0,0,.36-6.54c0-16.57-6.72-30-15-30a7.88,7.88,0,0,0-2.71.5q-.45-1.14-1-2.25a78.62,78.62,0,0,0,3.07-22.58c0-13.05-2.7-24.52-6.79-31.15a42.93,42.93,0,0,0,6.79-23.61,42,42,0,0,0-8.92-26.49c9.34-6.07,15.74-18.42,15.74-32.67,0-10.88-3.74-20.63-9.67-27.35a29.67,29.67,0,0,0-3.57-10.41c13.86-5.54,23.42-17.25,23.42-30.8a29,29,0,0,0-3.07-12.94,78.62,78.62,0,0,0,3.07-22.58c0-13.05-2.7-24.52-6.79-31.15a42.93,42.93,0,0,0,6.79-23.61,42,42,0,0,0-8.92-26.49c9.34-6.07,15.74-18.42,15.74-32.67a43.24,43.24,0,0,0-5.94-22.26A43.57,43.57,0,0,0,1089,964.5c0-10.21-3-19.27-7.69-24.91,0-1.13.06-2.26.06-3.42,0-13-2.7-24.52-6.79-31.15a42.93,42.93,0,0,0,6.79-23.61,42,42,0,0,0-8.92-26.49c9.34-6.07,15.74-18.42,15.74-32.67,0-10.88-3.74-20.63-9.67-27.35a29.67,29.67,0,0,0-3.57-10.41c13.86-5.54,23.42-17.25,23.42-30.8a29,29,0,0,0-3.07-12.94,78.62,78.62,0,0,0,3.07-22.58c0-13-2.7-24.52-6.79-31.15a42.93,42.93,0,0,0,6.79-23.61A42,42,0,0,0,1089.45,636.92Z"/><path class="cls-2" d="M275,1859.5v0Z"/><path class="cls-3" d="M165,2047.5l-2.19.74a61.67,61.67,0,0,1-6.37,1.91A62.94,62.94,0,0,1,146,2052l-3.2.22a11.84,11.84,0,0,1-1.69,0l-1.74-.05a26.43,26.43,0,0,1-3.62-.22c-1.24-.17-2.52-.28-3.81-.52a44.43,44.43,0,0,1-16-6.29,56.14,56.14,0,0,1-14.32-13.64,83.81,83.81,0,0,1-10.37-19.18,108.61,108.61,0,0,1-3.61-10.94c-.51-1.89-1-3.8-1.4-5.74-.21-1-.4-1.94-.58-2.93l-.26-1.48,0-.31h0a39.75,39.75,0,0,1-5.89-1.93,35.94,35.94,0,0,1-5.45-2.9,33.47,33.47,0,0,1-8.7-8.27,41.94,41.94,0,0,1-5.4-10.12,60.84,60.84,0,0,1-2.8-10.51A95.65,95.65,0,0,1,56,1937.42a148.88,148.88,0,0,1,1.75-17.1,198.72,198.72,0,0,1,5.44-24.18c1.64-5.61,2.77-8.64,2.77-8.64s-.92,3.1-2.22,8.78a223.37,223.37,0,0,0-4.21,24.28,157.53,157.53,0,0,0-1.07,16.91,96.31,96.31,0,0,0,1.64,19.2c1.34,6.59,3.65,13.42,8,19.13a30.37,30.37,0,0,0,7.88,7.35,33.56,33.56,0,0,0,4.9,2.58,38,38,0,0,0,5.38,1.74l2.34.58.2,1.47.17,1.16.25,1.42c.17,1,.35,1.89.55,2.83.39,1.88.84,3.73,1.32,5.56,1,3.66,2.11,7.21,3.39,10.64a83.87,83.87,0,0,0,9.61,18.63,54.8,54.8,0,0,0,13.22,13.38,43.46,43.46,0,0,0,15,6.58c1.23.29,2.46.44,3.65.66a26.72,26.72,0,0,0,3.5.38l1.69.12a11.48,11.48,0,0,0,1.65.06l3.14-.06a77.74,77.74,0,0,0,16.79-2.79Z"/></g></g></svg>