<svg xmlns="http://www.w3.org/2000/svg" viewBox="0 0 551 418"><defs><style>.cls-1{fill:#3d3d7a;}</style></defs><title>Fichier 6</title><g id="Calque_2" data-name="Calque 2"><g id="NUAGES"><path class="cls-1" d="M528,366H435.31A23.06,23.06,0,0,0,447,346v-6a23.07,23.07,0,0,0-23-23h5a23.07,23.07,0,0,0,23-23v-6a23.07,23.07,0,0,0-23-23H157.66A23.07,23.07,0,0,1,144,244v-6a23.09,23.09,0,0,1,16.31-22H402a23.07,23.07,0,0,0,23-23v-6a23.07,23.07,0,0,0-23-23H115.66A23.07,23.07,0,0,1,102,143v-6a23.07,23.07,0,0,1,23-23h3.34a22.81,22.81,0,0,0-9.34-2h69a23.07,23.07,0,0,0,23-23V75a23.07,23.07,0,0,0-23-23H92a23.07,23.07,0,0,0,23-23V23A23.07,23.07,0,0,0,92,0L0,1,1,316l59,1a23.07,23.07,0,0,0-23,23v6a23.07,23.07,0,0,0,23,23h92.69A23.06,23.06,0,0,0,141,389v6a23.07,23.07,0,0,0,23,23H528a23.07,23.07,0,0,0,23-23v-6A23.07,23.07,0,0,0,528,366Z"/></g></g></svg>