<svg xmlns="http://www.w3.org/2000/svg" viewBox="0 0 558 363"><defs><style>.cls-1{fill:#3d3d7a;}</style></defs><title>Fichier 4</title><g id="Calque_2" data-name="Calque 2"><g id="NUAGES"><path class="cls-1" d="M558,114l-142.7,1a23.53,23.53,0,0,1-13.21-20.38h0a23.58,23.58,0,0,1,17.38-23.4l-.83-.26,31.79-.31A23.57,23.57,0,0,0,473.69,47h0A23.58,23.58,0,0,0,450,23.69l-38.53.38A19.13,19.13,0,0,0,412,19.5h0A19.55,19.55,0,0,0,392.5,0h-150A19.55,19.55,0,0,0,223,19.5h0a19.48,19.48,0,0,0,1.14,6.5H195.35A25.43,25.43,0,0,0,170,51.35v4.3A25.43,25.43,0,0,0,195.35,81H371v.2l-23.86.14a28.6,28.6,0,0,1,16,25.41l0,6A28.61,28.61,0,0,1,339.5,141H25.35A25.43,25.43,0,0,0,0,166.35v4.3A25.43,25.43,0,0,0,25.35,196H353.6l.08.26-14.51.08a28.6,28.6,0,0,1,16,25.41l0,6a28.6,28.6,0,0,1-15,25.25H190.35A25.43,25.43,0,0,0,165,278.35v4.3A25.43,25.43,0,0,0,190.35,308H294s9,2,6.35,11.2c-1.36,4.7-4.35,8.92-4.35,14.15v4.3A25.43,25.43,0,0,0,321.35,363H402v-1.3A43.41,43.41,0,0,0,412.5,363H558Z"/></g></g></svg>