<svg xmlns="http://www.w3.org/2000/svg" viewBox="0 0 651.89 363"><defs><style>.cls-1{fill:#3d3d7a;}</style></defs><title>Fichier 3</title><g id="Calque_2" data-name="Calque 2"><g id="NUAGES"><path class="cls-1" d="M628.16,243.76l-161.92,1.6a23.54,23.54,0,0,0,10.23-19.6h0a23.57,23.57,0,0,0-23.73-23.27l-49.52.49A44.64,44.64,0,0,0,409,181h0a44.62,44.62,0,0,0-5.26-21l26.58-.26A23.57,23.57,0,0,0,453.58,136h0a23.56,23.56,0,0,0-23.73-23.27L194.3,115a23.53,23.53,0,0,1-13.21-20.38h0a23.58,23.58,0,0,1,17.38-23.4l-.83-.26,31.79-.31A23.57,23.57,0,0,0,252.69,47h0A23.58,23.58,0,0,0,229,23.69l-38.53.38A19.13,19.13,0,0,0,191,19.5h0A19.55,19.55,0,0,0,171.5,0H21.5A19.55,19.55,0,0,0,2,19.5H2A19.48,19.48,0,0,0,3.14,26H0V81H150v.2l-23.86.14a28.6,28.6,0,0,1,16,25.41l0,6A28.61,28.61,0,0,1,118.5,141L0,140v55l132.6,1,.08.26-14.51.08a28.6,28.6,0,0,1,16,25.41l0,6a28.6,28.6,0,0,1-15,25.25L0,254v54H73s9,2,6.35,11.2C78,323.9,75,328.12,75,333.35v4.3A25.43,25.43,0,0,0,100.35,363H181v-1.3A43.41,43.41,0,0,0,191.5,363h196a43.66,43.66,0,0,0,40.72-28.26l59.82-.59a23.57,23.57,0,0,0,23.27-23.73h0A23.47,23.47,0,0,0,502.07,292l126.55-1.25A23.57,23.57,0,0,0,651.89,267h0A23.57,23.57,0,0,0,628.16,243.76Z"/></g></g></svg>