<svg xmlns="http://www.w3.org/2000/svg" viewBox="0 0 558.33 364.88"><defs><style>.cls-1{fill:#3d3d7a;}</style></defs><title>Fichier 1</title><g id="Calque_2" data-name="Calque 2"><g id="NUAGES"><path class="cls-1" d="M0,249l142.7-.19a23.54,23.54,0,0,1,13.1,20.46h0a23.6,23.6,0,0,1-17.53,23.29c.27.1.56.17.83.26l-31.79.13a23.56,23.56,0,0,0-23.4,23.59h0A23.57,23.57,0,0,0,107.5,340l38.53-.16a19.21,19.21,0,0,0-.6,4.57h0A19.56,19.56,0,0,0,164.82,364l150,.9a19.56,19.56,0,0,0,19.62-19.39h0a19.21,19.21,0,0,0-1.11-6.5l28.79.17A25.43,25.43,0,0,0,387.62,314l0-4.3a25.43,25.43,0,0,0-25.21-25.5l-175.66-1.05v-.2h23.87a28.58,28.58,0,0,1-15.83-25.5v-6a28.61,28.61,0,0,1,23.85-28.11l314.14,1.87A25.42,25.42,0,0,0,558.3,200l0-4.29a25.44,25.44,0,0,0-25.2-25.51l-328.24-1.95-.09-.26h14.52a28.57,28.57,0,0,1-15.82-25.5v-6a28.57,28.57,0,0,1,15.17-25.16l149.8.89A25.43,25.43,0,0,0,394,87l0-4.29a25.44,25.44,0,0,0-25.2-25.51l-103.65-.62s-9-2-6.28-11.24c1.39-4.69,4.4-8.89,4.43-14.12l0-4.29a25.43,25.43,0,0,0-25.2-25.51L157.48.93v1.3A43.28,43.28,0,0,0,147,.87L1.49,0Z"/></g></g></svg>