<svg xmlns="http://www.w3.org/2000/svg" viewBox="0 0 52.05 52.07"><title>Fichier 12</title><g id="Calque_2" data-name="Calque 2"><g id="Calque_1-2" data-name="Calque 1"><path d="M52,19.55c0-1.36,0-2.71,0-4.07v-4.4c0-.69,0-1.39,0-2.09s0-1.39,0-2.08A6.88,6.88,0,0,0,44.78,0H7A7,7,0,0,0,.18,5.31,10.45,10.45,0,0,0,0,7.8Q0,26.34,0,44.88a6.61,6.61,0,0,0,3.9,6.37,2.7,2.7,0,0,0,.72.36,5,5,0,0,0,.78.2,4.05,4.05,0,0,0,.5.12A8.08,8.08,0,0,0,7.47,52H24.73c.31,0,.7.17.95-.19v-6.5c0-1.32,0-2.63,0-4V41c.05-1.22.08-2.43.07-3.65s0-2.43-.07-3.64c0-.22-.16-.23-.3-.22l-.14,0H20.87a1.37,1.37,0,0,1-1-.85,2,2,0,0,1-.07-.5c0-1.84,0-3.68,0-5.52,0-1.1.42-1.45,1.55-1.46s2.44,0,3.65,0c.48,0,.86,0,.69-.68v-5l0-1.25.45-2.48c.32-.78.65-1.55,1-2.33A9.84,9.84,0,0,1,33,9.22a3.5,3.5,0,0,0,.65,0A2.86,2.86,0,0,0,34.24,9l.41,0,.42,0h5.85l.42.12a1.61,1.61,0,0,1,.55,1c0,.12,0,.25,0,.37s0,.5,0,.75a3,3,0,0,0,.06.73l0,3.52h0a1.61,1.61,0,0,1-1.62.88,20.85,20.85,0,0,0-4,.12A2.6,2.6,0,0,0,34,18.89a34.59,34.59,0,0,0-.12,4.88c0,1.37,0,1.37,1.31,1.37,1.84,0,3.68,0,5.52,0,1.12,0,1.56.55,1.45,1.66-.06.61-.11,1.24-.16,1.86l-.6,4.15c-.29.22-.58.44-.88.65l-.09,0-.1,0H34.23a.21.21,0,0,0-.11,0,.18.18,0,0,0-.09,0h0l0,.1a.6.6,0,0,0-.1.27c0,5.81,0,11.62,0,17.43,0,.61.23.77.8.77,3.55,0,7.1,0,10.65,0a6.65,6.65,0,0,0,5.16-2.56,7.64,7.64,0,0,0,1.6-5.16Q52,31.92,52,19.55Z"/></g></g></svg>