<svg xmlns="http://www.w3.org/2000/svg" viewBox="0 0 34.88 47.79"><defs><style>.cls-1{fill:none;stroke:#fff;stroke-miterlimit:10;}</style></defs><title>Fichier 9</title><g id="Calque_2" data-name="Calque 2"><g id="Calque_1-2" data-name="Calque 1"><path d="M19.7,47.33l14.68-8.52a1,1,0,0,0,.49-1L30.41,10.52A.85.85,0,0,0,29,10.05L23,16,18.48,7.25a.91.91,0,0,0-1.6,0L14.32,12,8,.36A.68.68,0,0,0,6.75.57L.59,37.44a1.14,1.14,0,0,0,.55,1.16l15.17,8.74A3.39,3.39,0,0,0,19.7,47.33Z"/><line class="cls-1" x1="23.18" y1="15.37" x2="0.36" y2="38.21"/><line class="cls-1" x1="14.32" y1="11.43" x2="0.44" y2="37.89"/></g></g></svg>