<svg xmlns="http://www.w3.org/2000/svg" viewBox="0 0 69.36 69.35"><defs><style>.cls-1{stroke:#000;stroke-miterlimit:10;}</style></defs><title>Fichier 6</title><g id="Calque_2" data-name="Calque 2"><g id="Calque_1-2" data-name="Calque 1"><path class="cls-1" d="M67.4,31.37,39,2.08A5.25,5.25,0,0,0,31.64,2l-6.08,5.9,7.25,7.25a5.31,5.31,0,0,1,6.49,6.94L47.23,30a5.48,5.48,0,0,1,1.77-.3,5.33,5.33,0,1,1-4.86,3.16l-7.21-7.22V44.51a5.33,5.33,0,1,1-4.35-.32V25.24a5.32,5.32,0,0,1-3.16-7.13L22.31,11,2.08,30.6A5.24,5.24,0,0,0,2,38L30.34,67.27a5.23,5.23,0,0,0,7.38.12L67.28,38.75A5.23,5.23,0,0,0,67.4,31.37Z"/></g></g></svg>