<svg xmlns="http://www.w3.org/2000/svg" viewBox="0 0 63.21 62.5"><title>Fichier 11</title><g id="Calque_2" data-name="Calque 2"><g id="Calque_1-2" data-name="Calque 1"><path d="M31.6,0a31.61,31.61,0,0,0-6.67,62.5c0-1.22-.1-2.44-.14-3.65,0-.62-.28-.92-.94-.84s-1.34.16-2,.19c-3.75.14-7.18-.68-8.85-5a9.63,9.63,0,0,0-2.44-3.62c-.43-.4-.94-.69-1.38-1.09s-1-.68-.74-1.34.93-.52,1.48-.49a5.58,5.58,0,0,1,3.48,1.5,20.59,20.59,0,0,1,2.42,3,7,7,0,0,0,8.3,2.19,1.51,1.51,0,0,0,1.1-1.44,3.88,3.88,0,0,1,1-2.45c.83-.86.55-1.1-.16-1.21s-1.39-.2-2.08-.35c-3.62-.79-6.87-2.22-9.2-5.21a15.49,15.49,0,0,1-3-7.6c-.62-4.51-.16-8.73,2.85-12.37a1.23,1.23,0,0,0,.19-1.24,12,12,0,0,1,.13-7c.45-1.48.62-1.57,2.13-1.34a16.83,16.83,0,0,1,6.45,2.68,3.35,3.35,0,0,0,2.81.46,30.25,30.25,0,0,1,13.52-.12,4.77,4.77,0,0,0,4-.66,14.74,14.74,0,0,1,6.18-2.41c1.41-.18,1.49.12,2,2a11.46,11.46,0,0,1,0,6,2.18,2.18,0,0,0,.45,2.05,12.59,12.59,0,0,1,2.58,6.18,20.72,20.72,0,0,1-1.09,9.78A12.64,12.64,0,0,1,46,47.07a21.66,21.66,0,0,1-5,1.19c-.92.1-1,.26-.55,1a8.46,8.46,0,0,1,1.29,3A11.39,11.39,0,0,1,42,54.67v6.76A31.6,31.6,0,0,0,31.6,0Z"/></g></g></svg>