<svg xmlns="http://www.w3.org/2000/svg" viewBox="0 0 42.81 43.4"><title>Fichier 13</title><g id="Calque_2" data-name="Calque 2"><g id="Calque_1-2" data-name="Calque 1"><path d="M36.85,0H6A6,6,0,0,0,0,6V37.44a6,6,0,0,0,6,6H36.85a6,6,0,0,0,6-6V6A6,6,0,0,0,36.85,0ZM13.1,36c0,.58-.22.71-.74.71-1.63,0-3.26,0-4.89,0-.58,0-.68-.22-.68-.74,0-3.15,0-6.3,0-9.45s0-6.19,0-9.29c0-.67.2-.84.84-.82,1.57,0,3.15,0,4.72,0,.52,0,.75.1.75.68Q13.07,26.56,13.1,36ZM10,13.74a3.68,3.68,0,1,1,3.68-3.68A3.68,3.68,0,0,1,10,13.74ZM36.73,36.65c-1.84,0-3.67,0-5.51.07-.68,0-.81-.22-.81-.85,0-3.23,0-6.46,0-9.68A8,8,0,0,0,30,23.25a2.66,2.66,0,0,0-1.92-1.7,3.5,3.5,0,0,0-4.55,2.91,9.81,9.81,0,0,0-.17,1.71c0,3.49,0,7,0,10.47a42.87,42.87,0,0,1-6.31,0q0-10.08,0-20.16h0l6-.08c.16.85,0,1.7.08,2.55,0,0,0,.05,0,.05l.07,0,.85-1.07a8.36,8.36,0,0,1,2.75-1.67c3-.65,5.85-.5,8.17,1.87a10.58,10.58,0,0,1,1.72,6.19C36.75,28.42,36.72,32.54,36.73,36.65Z"/></g></g></svg>