<svg xmlns="http://www.w3.org/2000/svg" viewBox="0 0 54.13 38.44"><title>Fichier 14</title><g id="Calque_2" data-name="Calque 2"><g id="Calque_1-2" data-name="Calque 1"><polygon points="0 2.94 0 33.97 15.52 18.6 0 2.94"/><path d="M1.23.05,24.9,24.15A4.06,4.06,0,0,0,30,23.58C32.62,21.19,53.69.41,53.69.41S1.22-.17,1.23.05Z"/><polygon points="54.05 3.01 54.13 33.97 38.54 18.6 54.05 3.01"/><path d="M38.69,22.49,51.41,34.71a2.17,2.17,0,0,1-1.5,3.73H49.8c-3.41-.06-41.06,0-46.6,0a3.07,3.07,0,0,1-1.42-.35C1.24,37.8.61,37.37.65,37S10.74,26.67,15.21,22.31a3,3,0,0,1,4.23,0l2.91,2.81a7.3,7.3,0,0,0,5.31,2.12,5.92,5.92,0,0,0,2.73-.77,4.43,4.43,0,0,0,1-.82c1.13-1.2,2.19-2.27,3.06-3.12A3,3,0,0,1,38.69,22.49Z"/></g></g></svg>