<svg xmlns="http://www.w3.org/2000/svg" viewBox="0 0 64.11 64.04"><title>Fichier 15</title><g id="Calque_2" data-name="Calque 2"><g id="Calque_1-2" data-name="Calque 1"><path d="M31,17.75a1.48,1.48,0,0,0,2.45,0c2.13-2,4.23-4.07,6.34-6.12a2.55,2.55,0,0,0,.94-1.51C41,7,40.31,4.07,37.65,1.93A11.89,11.89,0,0,0,33.47,0h-3c0,.06,0,.16-.07.16-3.88.85-5.89,3.51-6.77,7.15a3.66,3.66,0,0,0,.8,3.59C26.6,13.18,28.79,15.48,31,17.75Z"/><path d="M64.11,31.46,64,31.4a8.43,8.43,0,0,0-6.43-7.26A5.39,5.39,0,0,0,52,25.78c-4.22,4.38-8.58,8.62-12.89,12.91a7.18,7.18,0,0,0-1.48,2.06,9.38,9.38,0,0,0,1.51.23c5.54.06,11.07.14,16.61.14A8.46,8.46,0,0,0,64,33.75l.16-.06Z"/><path d="M57.08,14A8.59,8.59,0,0,0,42.9,9.55c-1.79,1.55-3.37,3.32-5,5-5,5-10,10-15,15l-.51.5C17.88,34.42,13.39,38.82,9,43.32A7.48,7.48,0,0,0,7.12,51c1.1,3.77,4.07,6.69,7.77,6.39,3,.17,5.44-1.16,7.63-3.35C33.3,43.3,44.15,32.58,55,21.83A7.86,7.86,0,0,0,57.08,14Z"/><path d="M11.76,39.41c2.75-3.12,5.91-5.83,8.8-8.8,2.06-2.12,4.41-4,6.12-6.63-.88-.08-1.61-.21-2.35-.21q-6.79,0-13.59,0a20.67,20.67,0,0,0-3.42.16A8.3,8.3,0,0,0,0,31.72a8.54,8.54,0,0,0,5.33,8.56C8.16,41.37,10.11,41.28,11.76,39.41Z"/><path d="M50.92,41.81c-2.09,0-4.18,0-6.28,0H38.16a5.3,5.3,0,0,0-4.55,2.36c-.75,1-.73,1.57.16,2.49,2.94,3,5.84,6.11,8.87,9a8.24,8.24,0,0,0,11,.28c3.78-3.17,4.18-8.2,1.14-12.25A4.43,4.43,0,0,0,50.92,41.81Z"/><path d="M12.67,23c1.93-.07,3.86,0,5.78,0H21.8a30.52,30.52,0,0,1,3.45,0,5.47,5.47,0,0,0,5.55-2.65,1.54,1.54,0,0,0-.24-2c-2.83-2.94-5.65-5.91-8.52-8.82a8.45,8.45,0,0,0-8.43-2.35,8.68,8.68,0,0,0-6.44,8.79,9.09,9.09,0,0,0,2.66,5.81A3.4,3.4,0,0,0,12.67,23Z"/><path d="M33,47.14a1.49,1.49,0,0,0-2.37-.06c-2,2-4,4-5.95,5.93a4,4,0,0,0-1.18,3.2,6.77,6.77,0,0,0,.06,1,8.59,8.59,0,0,0,16.49,1.13c.51-1.39,1-2.9-.29-4.24C37.51,51.8,35.27,49.46,33,47.14Z"/></g></g></svg>