<svg xmlns="http://www.w3.org/2000/svg" viewBox="0 0 117.52 73.62"><defs><style>.cls-1,.cls-2{stroke:#fff;}.cls-1,.cls-2,.cls-3{stroke-miterlimit:10;}.cls-2{stroke-width:2px;}.cls-3{stroke:#000;stroke-width:0.25px;}</style></defs><title>Fichier 5</title><g id="Calque_2" data-name="Calque 2"><g id="Calque_1-2" data-name="Calque 1"><polygon class="cls-1" points="0.5 43.26 0.5 24.28 12.93 17.48 25.18 24.37 25.18 43.52 17.1 38.92 17.1 29.56 12.93 27.09 8.76 29.48 8.76 38.84 0.5 43.26"/><polygon class="cls-1" points="31.14 24.63 31.14 38.58 43.39 46.33 55.99 39.01 55.99 24.63 43.48 17.73 31.14 24.63"/><polygon class="cls-1" points="61.69 24.8 61.69 39.09 73.95 46.5 86.29 39.26 86.29 5.65 78.29 0.88 78.29 20.45 73.78 17.65 61.69 24.8"/><polygon class="cls-2" points="69.78 29.9 69.78 34.58 73.78 37.05 78.03 34.5 78.29 29.82 73.86 27.26 69.78 29.9"/><polygon class="cls-1" points="92.16 24.54 92.16 38.92 103.82 45.99 112.75 41.48 100.25 34.16 100.25 29.65 104.33 27.01 108.67 29.56 108.75 34.41 116.93 29.39 117.01 24.63 104.33 17.48 92.16 24.54"/><path class="cls-3" d="M55.05,69.31l-1.78.85,4.85,3.32L70.63,66l-.09-14.9L58,43.77,45.18,51.35V65.56l6,3.32s3.32.26,3.41-2.47,0-13.1,0-13.1h-1.7V65.65a1.7,1.7,0,0,1-2.73.93c-2-1.27-3-1.87-3-1.87V52.11L58,46l10.81,6.29V64.54L58,71.09Z"/><path class="cls-3" d="M55.78,60.37H57.5s.23,2.28,2.28,2.3l2.3,0a2.9,2.9,0,0,0,1.35-.33c1-.5,2.23-1.52-.46-2.62a2.46,2.46,0,0,0-.75-.16c-3.83-.28-4.23-.64-4.23-.64s-1.77-.46-2-2a3.78,3.78,0,0,1,0-.75,3.55,3.55,0,0,1,2.08-2.77,4.75,4.75,0,0,1,2-.5c1.49,0,5.56-.64,6,3.87H64.24s-.48-2.12-2.19-2.12H60a1.18,1.18,0,0,0-.5.1c-.78.35-2.12,1.64.07,2.49,0,0,2.26.53,4.34.79a2.92,2.92,0,0,1,2.32,1.66,2,2,0,0,1,.2,1.07l-.06.94a2.07,2.07,0,0,1-.32,1,4.78,4.78,0,0,1-3.41,1.76,9.1,9.1,0,0,1-4.39-.36S56.69,63.58,55.78,60.37Z"/></g></g></svg>