<svg xmlns="http://www.w3.org/2000/svg" viewBox="0 0 102.87 54.62"><defs><style>.cls-1{stroke:#000;stroke-miterlimit:10;}</style></defs><title>Fichier 4</title><g id="Calque_2" data-name="Calque 2"><g id="Calque_1-2" data-name="Calque 1"><path class="cls-1" d="M33.29,19.47a19,19,0,0,0-3-.14c-.95,0-1.74,0-2.52,0-.31,0-.48.07-.54.42-.51,3.16-1,6.31-1.57,9.47-.07.39,0,.58.46.57,1.27,0,2.54.06,3.81,0,2.33-.16,4.27-1,5.28-3.32a10.89,10.89,0,0,0,.8-3.33A3.07,3.07,0,0,0,33.29,19.47Z"/><path class="cls-1" d="M79.56,19.4c-1.67-.14-3.37,0-5-.07-.41,0-.41.28-.45.53-.52,3.15-1,6.3-1.58,9.45-.08.46.11.49.46.48h1.9c.59,0,1.18,0,1.76,0,2.39-.15,4.37-1,5.44-3.31a11.32,11.32,0,0,0,.77-3C83.28,20.62,81.57,19.57,79.56,19.4Z"/><path class="cls-1" d="M51.44.5C23.3.5.5,12.5.5,27.31S23.3,54.12,51.44,54.12s50.93-12,50.93-26.81S79.57.5,51.44.5Zm-16,33.67a10.16,10.16,0,0,1-4.69.88c-2,0-4,0-6,0-.5,0-.67.19-.76.65-.36,2-.76,4.07-1.12,6.11-.08.44-.23.61-.71.6-1.78,0-3.56,0-5.35,0-.6,0-.69-.2-.59-.73q1.1-5.39,2.15-10.77c1-4.86,1.93-9.72,2.86-14.59.42-2.2.37-2.21,2.62-2.21h4.91c1.81,0,3.62,0,5.43,0a10.52,10.52,0,0,1,3.74.49c2.69,1,4.63,2.83,5,5.86A13,13,0,0,1,39,31.79,14.6,14.6,0,0,1,35.44,34.17Zm24.44.88h0c-1,0-2,0-2.93,0-.41,0-.54-.07-.45-.53.79-4.08,1.53-8.16,2.33-12.23.47-2.41.06-2.95-2.41-3-1.42,0-2.84,0-4.25,0-.53,0-.71.16-.81.67-.9,4.62-1.83,9.24-2.76,13.86-.3,1.47-.06,1.18-1.46,1.2-1.59,0-3.18,0-4.77,0-.5,0-.67-.06-.55-.65,1-4.85,1.93-9.72,2.89-14.58.81-4.15,1.64-8.29,2.45-12.43.08-.46.23-.68.74-.67,1.81,0,3.62,0,5.43,0,.51,0,.63.13.53.63-.38,1.86-.72,3.74-1.08,5.61-.17.88,0,1.09.9,1.11a57.55,57.55,0,0,1,6.3.12,7.61,7.61,0,0,1,4.69,2,4.59,4.59,0,0,1,1.22,4.2c-.76,4.65-1.57,9.29-2.34,13.93-.09.54-.27.79-.88.75C61.75,35,60.81,35.05,59.88,35.05Zm24.71-2.19a10.89,10.89,0,0,1-6.49,2.19q-3.22,0-6.45,0c-.48,0-.68.13-.77.61-.36,2-.78,4-1.13,6.05-.1.56-.31.71-.86.7-1.76,0-3.52,0-5.27,0-.53,0-.66-.12-.55-.67,1.61-8.06,3.19-16.13,4.79-24.19.18-1,.4-1.91.57-2.87a.6.6,0,0,1,.72-.59c2.1,0,4.21,0,6.74,0,2,.08,4.36-.18,6.74.12s4.65,1.15,6.1,3.33a6.79,6.79,0,0,1,1.08,3.21C90.21,25.69,88.67,29.84,84.59,32.86Z"/></g></g></svg>