<svg xmlns="http://www.w3.org/2000/svg" viewBox="0 0 74.96 45.96"><title>Fichier 7</title><g id="Calque_2" data-name="Calque 2"><g id="Calque_1-2" data-name="Calque 1"><path d="M71.17,32.88a2.09,2.09,0,0,0,.49-.08,5.06,5.06,0,0,0,2.69-2.44c.3-.57.06-.91-.61-1A45.61,45.61,0,0,0,68.52,29,143,143,0,0,0,49.9,30a83.7,83.7,0,0,0-11.78,2,3.85,3.85,0,0,0-1.35.57c-.24.19-.46.41-.33.75a.68.68,0,0,0,.71.41,1.83,1.83,0,0,0,.47,0,67.59,67.59,0,0,1,6.93-1c3.18-.33,6.38-.52,9.57-.63a105.17,105.17,0,0,1,12.3.24C68,32.39,69.58,32.58,71.17,32.88Z"/><path d="M18.15,46a1.13,1.13,0,0,0-.23-.26,2.07,2.07,0,0,1-.82-2.63,7.58,7.58,0,0,1,2.26-3.39A13.79,13.79,0,0,1,23.51,37c.34-.14.67-.33,1-.5.08,0,.17-.11.14-.22s-.15-.13-.24-.12-.43,0-.64.07A61.07,61.07,0,0,0,4.06,43.65a1.87,1.87,0,0,1-.31.17c-.27.11-.59.32-.81,0s0-.65.26-.87a12.94,12.94,0,0,1,2.06-1.37,75.5,75.5,0,0,1,13.85-5.75,67,67,0,0,1,7.22-2,6,6,0,0,1,1.39-.19.81.81,0,0,1,.84.44.85.85,0,0,1-.25.91,5.57,5.57,0,0,1-1,.77,20.93,20.93,0,0,0-4.8,4.4,6.9,6.9,0,0,0-1.08,2,2.54,2.54,0,0,0-.12.87,1,1,0,0,0,1.4.92,4.54,4.54,0,0,0,1.68-1.27,34.41,34.41,0,0,0,4.72-6.88A74.1,74.1,0,0,0,33.27,27c.07-.19.14-.37.19-.56s0-.11,0-.17c-.33,0-.39.32-.53.51a15.63,15.63,0,0,1-4.58,4.44,4,4,0,0,1-2.36.58,1.87,1.87,0,0,1-1.89-1.61,5.59,5.59,0,0,1,.05-2.34,33.55,33.55,0,0,1,2.91-8c.15-.34.33-.67.48-1,.08-.17.27-.41.06-.52s-.35.19-.43.36c-.45.85-.88,1.71-1.31,2.58-1.74,3.49-3.38,7-5.45,10.37a5.15,5.15,0,0,1-2.07,2,2.22,2.22,0,0,1-3.42-1.6,8.62,8.62,0,0,1,0-3.68,77.8,77.8,0,0,1,4.35-13.74c.09-.22.2-.43.27-.66s.31-.43.11-.64-.42,0-.62,0c-1.41.36-2.82.71-4.22,1.09-1.59.44-3.17.93-4.72,1.49-.36.13-.76.34-1.11,0a1.15,1.15,0,0,1-.14-1.27,2.51,2.51,0,0,1,1.82-1.54,43.56,43.56,0,0,1,5.55-1.34c1.33-.26,2.66-.5,4-.71a1.32,1.32,0,0,0,1.07-.79,21,21,0,0,1,2.09-3.54,5,5,0,0,1,4.36-2,1.42,1.42,0,0,1,.35,0c.29.08.71.06.81.37s-.3.41-.49.59a16.3,16.3,0,0,0-2.83,4.1c-.22.42-.05.53.36.48,3.12-.41,6.25-.69,9.38-.92,2.51-.18,5-.22,7.54-.18.25,0,.64-.07.66.31s-.35.46-.64.48c-.94.06-1.88.08-2.82.13A115.57,115.57,0,0,0,25.34,12,1.57,1.57,0,0,0,24,13.07a112.71,112.71,0,0,0-4.65,14.46,4.08,4.08,0,0,0-.14,1.63c0,.24.09.49.37.56s.41-.13.52-.31c.41-.65.81-1.3,1.19-2,1.5-2.65,2.84-5.39,4.19-8.12a10.82,10.82,0,0,1,4.16-4.84,5.34,5.34,0,0,1,3.48-.82c.76.11.82.31.44.95A42,42,0,0,0,28.75,26.4a4.2,4.2,0,0,0-.09,1.41c.09.79.56,1,1.22.58a6.63,6.63,0,0,0,1.8-1.93,43,43,0,0,0,3.66-7.31c.29-.71.56-1.42.86-2.13a6.76,6.76,0,0,1,4.29-3.93A3.67,3.67,0,0,1,42,13c.39,0,.59.21.38.63-2.46,5-4.07,10.38-5.93,15.64a34.73,34.73,0,0,1-6,11.05A19.29,19.29,0,0,1,24.54,45a11,11,0,0,1-1.66.6c-.22.07-.47.09-.6.32Z"/><path d="M56.57,0c0,.05.06.11.1.14C58,1,58,2.15,57.58,3.45A17.11,17.11,0,0,1,55,8.15,62.33,62.33,0,0,1,48.49,16a13.93,13.93,0,0,0-3.7,8.66c0,.42-.15,1,.39,1.18s.82-.27,1.13-.58a10,10,0,0,0,1.4-1.89c1.8-3,3.59-6,5.4-9.06a6.87,6.87,0,0,1,3.74-3.07A4.38,4.38,0,0,1,58.94,11c.61.08.67.27.34.8a32.24,32.24,0,0,0-4.39,10.1,5.24,5.24,0,0,0-.08.88.88.88,0,0,0,.44.9c.38.19.69,0,1-.23a4.36,4.36,0,0,0,.9-.92,54.25,54.25,0,0,0,4.26-7.39,10.46,10.46,0,0,1,1.44-2.43A4.73,4.73,0,0,1,66.6,11a3.09,3.09,0,0,1,.52.07c.6.15.69.33.39.86a64.92,64.92,0,0,0-2.89,5.93A30.77,30.77,0,0,0,63,22.31a5.68,5.68,0,0,0-.2,1.74,1,1,0,0,0,.25.71c.36.3.22.57,0,.85a3.55,3.55,0,0,1-4,.62,1.35,1.35,0,0,1-.63-1.42,3.73,3.73,0,0,1,.38-1.17c.31-.62.63-1.23.93-1.84.08-.18.31-.43.06-.57s-.3.18-.4.33a22.71,22.71,0,0,1-2.12,2.76,10.12,10.12,0,0,1-2.59,2.11,4.18,4.18,0,0,1-2.73.52,1.83,1.83,0,0,1-1.71-1.85,6.7,6.7,0,0,1,.33-2.26,31.74,31.74,0,0,1,3-6.58c.13-.24.48-.64.27-.75s-.43.33-.57.58c-1.59,2.82-3.06,5.71-4.8,8.45a16.15,16.15,0,0,1-2.39,3.12,4.07,4.07,0,0,1-3.52,1.12,2.39,2.39,0,0,1-2.08-2,5.6,5.6,0,0,1,0-2.34,37.35,37.35,0,0,1,2.74-8.25,86.26,86.26,0,0,1,6.42-12A9.41,9.41,0,0,1,54,.29.59.59,0,0,0,54.33,0ZM47.78,15.53c.17,0,.24-.1.33-.2,1.31-1.46,2.7-2.85,3.91-4.39a31.79,31.79,0,0,0,3.7-5.51A4.68,4.68,0,0,0,56.34,3c0-.4-.09-.81-.54-1a.93.93,0,0,0-1,.43c-.35.45-.68.92-1,1.39a95.83,95.83,0,0,0-6,11.33C47.74,15.3,47.67,15.41,47.78,15.53Z"/><path d="M0,34.65c.24-.15.28-.42.37-.65a5.69,5.69,0,0,1,5.76-3.83c.25,0,.62-.1.71.25s-.28.38-.47.52a6.13,6.13,0,0,0-2.71,4.92c0,1.13.63,1.57,1.7,1.24A5.24,5.24,0,0,0,8.62,33a10.81,10.81,0,0,0-.77-4.32,17.18,17.18,0,0,1-1.06-3.85,7.21,7.21,0,0,1,1.23-5,5.17,5.17,0,0,1,7-1.38,1.76,1.76,0,0,1,.73,1,2.64,2.64,0,0,1-2.41,3.27c-.63,0-.77-.26-.44-.8a2.39,2.39,0,0,0,.4-1.62,1.18,1.18,0,0,0-1.71-1,2,2,0,0,0-1.13,1.68,5.13,5.13,0,0,0,.41,2.35A46.48,46.48,0,0,1,12.63,28,9.84,9.84,0,0,1,13,32.9a8.21,8.21,0,0,1-4.66,5.39,7.44,7.44,0,0,1-5.66.64A3.82,3.82,0,0,1,.26,37,1.48,1.48,0,0,0,0,36.65Z"/><path d="M75,13.32a.89.89,0,0,0-.46.35,2,2,0,0,1-.87.58c-.26.07-.56.2-.79,0s0-.46.13-.67c.3-.74.13-1.4-.44-1.61A1.19,1.19,0,0,0,71,12.9a2.22,2.22,0,0,0,.13,1.5c.29.66.59,1.32.91,2a18,18,0,0,1,1,2.63A5.31,5.31,0,0,1,71,25.39a6.59,6.59,0,0,1-4.69,1.36C64.7,26.61,63,25.33,64,23a4.37,4.37,0,0,1,3.91-2.85c.26,0,.6-.08.73.24s-.16.49-.37.66a4,4,0,0,0-1.53,3.41c0,.79.46,1,1.18.7a3.61,3.61,0,0,0,1.71-3.26,8.83,8.83,0,0,0-.84-2.62,8.32,8.32,0,0,1-1-3.72,4.92,4.92,0,0,1,4.16-4.78,3.92,3.92,0,0,1,3,.87Z"/><path d="M71.17,32.88c-1.59-.3-3.17-.49-4.75-.63A105.17,105.17,0,0,0,54.12,32c-3.19.11-6.39.3-9.57.63a67.59,67.59,0,0,0-6.93,1,1.83,1.83,0,0,1-.47,0,.68.68,0,0,1-.71-.41c-.13-.34.09-.56.33-.75A3.85,3.85,0,0,1,38.12,32,83.7,83.7,0,0,1,49.9,30a143,143,0,0,1,18.62-1,45.61,45.61,0,0,1,5.22.35c.67.09.91.43.61,1a5.06,5.06,0,0,1-2.69,2.44A2.09,2.09,0,0,1,71.17,32.88Z"/></g></g></svg>