<svg xmlns="http://www.w3.org/2000/svg" viewBox="0 0 44.55 50.59"><title>Fichier 10</title><g id="Calque_2" data-name="Calque 2"><g id="Calque_1-2" data-name="Calque 1"><path d="M22.16,0,.08,12.71,0,37.8,22.48,50.59,44.55,37.72V12.55Zm1,3.31,17.9,10.48-6.67,3.6L23.16,11Zm10.7,27.85-10.7,5.93V25.76L33.65,20ZM21.58,3.52v7.41l-12,6.25L3.68,13.69ZM2.73,15l6.46,3.81.1,13.34-6.46,3.5ZM21.47,46.62,4.21,36.88l6.35-3.71L21.47,39.1Zm0-9.43-10.8-5.71.1-11.55,10.7,5.93Zm.74-12.49L11.73,18.35,22.1,12.2l10.7,6Zm.95,21.81-.1-7.62L34,33.06l6.68,3.71Zm18.53-10.9L35.45,32l.1-13.24,6.36-3.6Z"/></g></g></svg>