<svg xmlns="http://www.w3.org/2000/svg" viewBox="0 0 47.2 43.34"><title>Fichier 8</title><g id="Calque_2" data-name="Calque 2"><g id="Calque_1-2" data-name="Calque 1"><path d="M10.57,4.31a14.28,14.28,0,0,1,4.68-3.19c.05,2.26,0,23.56,0,23.56l-4.68.82.11-6.22A10.72,10.72,0,0,0,10.73,9C10.73,4.59,10.57,4.31,10.57,4.31Z"/><ellipse cx="9.8" cy="14.06" rx="1.54" ry="4.13"/><path d="M40.68,3.82c0-3.31-3.47-3-3.47-3S21.74-.15,19,0s-2.59,2-2.59,2V24.57c.06.05,24.28.66,24.28.66S40.62,7.12,40.68,3.82Zm-17,9.85A2.31,2.31,0,1,1,26,11.36,2.3,2.3,0,0,1,23.67,13.67ZM35,13.73a2.37,2.37,0,1,1,2.37-2.37A2.37,2.37,0,0,1,35,13.73Z"/><polygon points="16.4 25.61 16.4 26.66 40.57 27.38 40.73 26.44 16.4 25.61"/><polygon points="10.62 26.39 15.3 25.61 15.3 26.77 10.62 26.99 10.62 26.39"/><path d="M7.43,43.12V29.52S7.6,27.76,10,27.71s35.78.6,35.78.6,1.38-.11,1.43,2.53,0,12.39,0,12.39Z"/><path d="M6.5,43.34V29.74s-.12-1.37-2.21-1.15S.22,30.29.22,31.78,0,43.17,0,43.17Z"/></g></g></svg>