<svg xmlns="http://www.w3.org/2000/svg" viewBox="0 0 474.49 337"><defs><style>.cls-1{fill:#3d3d7a;}</style></defs><title>Fichier 5</title><g id="Calque_2" data-name="Calque 2"><g id="NUAGES"><path class="cls-1" d="M400,0H195.35A25.43,25.43,0,0,0,170,25.35v4.3A25.43,25.43,0,0,0,195.35,55H405.49l-58.32.34a28.6,28.6,0,0,1,16,25.41l0,6A28.61,28.61,0,0,1,339.5,115H25.35A25.43,25.43,0,0,0,0,140.35v4.3A25.43,25.43,0,0,0,25.35,170H397.49l-58.32.34a28.6,28.6,0,0,1,16,25.41l0,6a28.6,28.6,0,0,1-15,25.25H190.35A25.43,25.43,0,0,0,165,252.35v4.3A25.43,25.43,0,0,0,190.35,282H294s9,2,6.35,11.2c-1.36,4.7-4.35,8.92-4.35,14.15v4.3A25.43,25.43,0,0,0,321.35,337H402Zm45.5,170.17-1.12-.17h30.11Z"/></g></g></svg>