<svg xmlns="http://www.w3.org/2000/svg" viewBox="0 0 652.12 365.18"><defs><style>.cls-1{fill:#3d3d7a;}</style></defs><title>Fichier 2</title><g id="Calque_2" data-name="Calque 2"><g id="NUAGES"><path class="cls-1" d="M23.59,117.81l161.93-.64a23.53,23.53,0,0,0-10.35,19.54h0a23.56,23.56,0,0,0,23.59,23.41l49.52-.2a44.68,44.68,0,0,0-5.91,22h0a44.59,44.59,0,0,0,5.13,21.06l-26.57.1a23.57,23.57,0,0,0-23.41,23.59h0A23.57,23.57,0,0,0,221.11,250l235.56-.92a23.54,23.54,0,0,1,13.1,20.46h0a23.59,23.59,0,0,1-17.53,23.29c.27.1.56.17.83.26l-31.79.13a23.57,23.57,0,0,0-23.41,23.59h0a23.58,23.58,0,0,0,23.6,23.41L460,340.1a19.14,19.14,0,0,0-.6,4.57h0a19.56,19.56,0,0,0,19.39,19.61l150,.9a19.56,19.56,0,0,0,19.62-19.39h0a19.21,19.21,0,0,0-1.11-6.5l3.15,0,.33-55-150-.9v-.2h23.87a28.58,28.58,0,0,1-15.83-25.5v-6a28.61,28.61,0,0,1,23.85-28.11l118.49,1.71.33-55-132.59-1.79-.09-.26h14.52a28.57,28.57,0,0,1-15.82-25.5v-6a28.55,28.55,0,0,1,15.17-25.16l119.16-.29.32-54-73-.43s-9-2.06-6.28-11.25c1.39-4.68,4.4-8.89,4.43-14.12l0-4.29A25.44,25.44,0,0,0,552.1,1.71l-80.65-.48v1.3A43.28,43.28,0,0,0,461,1.17L265,0a43.65,43.65,0,0,0-40.89,28l-59.83.23a23.58,23.58,0,0,0-23.41,23.6h0A23.49,23.49,0,0,0,150,70.31l-126.56.5A23.56,23.56,0,0,0,0,94.4H0A23.58,23.58,0,0,0,23.59,117.81Z"/></g></g></svg>