<svg xmlns="http://www.w3.org/2000/svg" viewBox="0 0 200.85 200.85"><defs><style>.cls-1,.cls-6{fill:#ef9d1b;}.cls-1{opacity:0.76;}.cls-2{fill:#eac550;}.cls-3{fill:#e2af54;}.cls-4{fill:none;stroke:#445bbc;stroke-miterlimit:10;}.cls-5{fill:#8bcc66;}.cls-7{fill:#c97802;}</style></defs><title>Fichier 6</title><g id="Calque_2" data-name="Calque 2"><g id="planète6"><circle class="cls-1" cx="100.42" cy="100.42" r="100.42"/><circle class="cls-1" cx="100.54" cy="100.77" r="92.48"/><ellipse class="cls-2" cx="100.58" cy="101.24" rx="85.27" ry="83.23" transform="translate(-2.19 2.23) rotate(-1.25)"/><path class="cls-3" d="M63.47,26s-57.88,95.8,36.84,158.91c0,0-73.83-.28-83.85-71C7.41,50.05,63.47,26,63.47,26Z"/><line class="cls-4" x1="85.23" y1="122.39" x2="85.23" y2="122.39"/><path class="cls-5" d="M182.23,75.63s-1.94-6.46-3.14-8"/><path class="cls-5" d="M185.21,90.9h0"/><rect class="cls-6" x="58.46" y="44.11" width="14.05" height="8.36" rx="4.18"/><rect class="cls-6" x="110.33" y="62.85" width="21.41" height="10.71" rx="5.35"/><rect class="cls-6" x="70.84" y="90.9" width="20.74" height="9.52" rx="4.76"/><rect class="cls-6" x="149.14" y="110.69" width="15.06" height="8.57" rx="4.29"/><rect class="cls-6" x="144.12" y="122.39" width="5.02" height="5.02" rx="2.51"/><rect class="cls-6" x="137.36" y="114.98" width="6.76" height="4.29" rx="2.14"/><rect class="cls-6" x="91.59" y="146.16" width="52.53" height="6.69" rx="3.35"/><rect class="cls-6" x="56.46" y="127.41" width="9.03" height="4.36" rx="2.18"/><rect class="cls-6" x="86.57" y="156.86" width="11.54" height="5.69" rx="2.84"/><rect class="cls-6" x="152.46" y="52.47" width="15.75" height="6" rx="3"/><rect class="cls-6" x="33.37" y="81.58" width="18.74" height="6.02" rx="3.01"/><path class="cls-7" d="M46,87.6H36.38a3,3,0,0,1-3-3h0a3,3,0,0,1,3-3h10Z"/></g></g></svg>