<svg xmlns="http://www.w3.org/2000/svg" viewBox="0 0 91.33 95.12"><defs><style>.cls-1{fill:#f0c1cc;}.cls-2{fill:#fdd503;}.cls-3{fill:#a35072;}.cls-4{fill:#ed9fb3;}.cls-5{fill:#d35e82;}</style></defs><title>Fichier 8</title><g id="Calque_2" data-name="Calque 2"><g id="planète8"><path class="cls-1" d="M82.9,76C68.35,96.87,40,101,19.59,85.25L72.27,9.77C92.69,25.52,97.45,55.18,82.9,76Z"/><path class="cls-1" d="M18.5,84.66l3.9-2.55L72.11,9.67C51.75-6.15,23.38-2.14,8.75,18.64S-1.87,68.83,18.5,84.66Z"/><polygon class="cls-1" points="30.32 57.11 43.94 67.7 35.87 79.18 22.24 68.59 30.32 57.11"/><polygon class="cls-1" points="50.91 24.39 64.53 34.98 56.45 46.46 42.83 35.86 50.91 24.39"/><path class="cls-2" d="M66.25,16.61c.1.11,4.37,4.11,4.37,4.11l5.07-8a42.8,42.8,0,0,0-3.42-2.91S66.16,16.49,66.25,16.61Z"/><path class="cls-3" d="M44.19.07s20.25-1.32,35.69,17l-9.23,2.7-6.88-.94S63.21,15.91,44.19.07Z"/><path class="cls-3" d="M65.06,19.6S91.34,71.8,27,89.93c0,0,22.2,13.71,47-3.44,16.91-11.72,25.2-44.18,7.54-67.36Z"/><path class="cls-4" d="M63.28,26.06,79.42,38.61a4.67,4.67,0,0,0,6.72-1,5.23,5.23,0,0,0-1.06-7l-7.29-5.67A4,4,0,0,0,83.63,24c.15-.21.25-.45.39-.66.4-.63-7.73-10.72-8.63-10.55-1.49.29-3.07.34-4,1.68a4.55,4.55,0,0,0,.92,6.13L68.93,18a4.64,4.64,0,0,0-6.71,1A5.22,5.22,0,0,0,63.28,26.06Z"/><path class="cls-4" d="M43.15,21.56,63.37,37.28a4.71,4.71,0,0,0-6.8,1,5.28,5.28,0,0,0,1.07,7.12l14,10.92a4.71,4.71,0,0,0,6.8-1,5.3,5.3,0,0,0-1.07-7.13l-8.71-6.77a4.15,4.15,0,0,0,6-.88,4.65,4.65,0,0,0-1-6.27L48.19,14.4a4.15,4.15,0,0,0-6,.89A4.64,4.64,0,0,0,43.15,21.56Z"/><path class="cls-4" d="M45.28,82.64,25.22,67.05a4.18,4.18,0,0,0-5.6.27,4.6,4.6,0,0,0,.5,6.75l.76.59,1.77,1.56a5.76,5.76,0,0,1-.72,5.4l-.23.32a4.57,4.57,0,0,1-3.88,2c.3.47,9.15,6,9.15,6a43.08,43.08,0,0,0,20,4.71h0C51,89.66,46.59,83.66,45.28,82.64Z"/><path class="cls-1" d="M43.89,57.82l2.16,1.68c1.18.92,3.27.08,4.64-1.87l.24-.33c1.37-1.95,1.52-4.29.34-5.21l-2.16-1.68c-1.19-.92-3.28-.08-4.65,1.86l-.23.34C42.86,54.55,42.7,56.9,43.89,57.82Z"/><path class="cls-5" d="M63.45,17.81a4.65,4.65,0,0,1,5.48.22l3.36,2.61a4.55,4.55,0,0,1-.92-6.13c.95-1.34,2.53-1.39,4-1.68.13,0-.5.29-.08.68l0-.49a4.81,4.81,0,0,0-3.89,1.49,4,4,0,0,0,.77,6c.13.1-3.8-3.19-5.64-3.47"/><path class="cls-5" d="M75.39,12.83c-1.5.19-3.07.34-4,1.68a4.55,4.55,0,0,0,.92,6.13L68.93,18a4.65,4.65,0,0,0-5.48-.22,45.91,45.91,0,0,1,5.86,12.93l10,7.77A4.75,4.75,0,0,0,85.84,38a5.22,5.22,0,0,0-.76-7.42l-5.61-4.65a5.45,5.45,0,0,0,4.81-2.45,33.67,33.67,0,0,0-2.8-4.35,17.78,17.78,0,0,0-2-2.44C77.94,15.23,75.68,12.79,75.39,12.83Z"/><path class="cls-5" d="M78.49,55.33a5.3,5.3,0,0,0-1.07-7.13l-6.46-5a41.67,41.67,0,0,1-1.5,11.42l2.23,1.73A4.71,4.71,0,0,0,78.49,55.33Z"/><path class="cls-5" d="M74.7,40.55a4.65,4.65,0,0,0-1-6.27l-4.42-3.44A46,46,0,0,1,71,42.31,4.14,4.14,0,0,0,74.7,40.55Z"/><path class="cls-5" d="M45.33,82.73l-.14-.11c-6.47,3.86-15.55,7-22.79,4.65L25.19,89a53.64,53.64,0,0,0,7,3.71,41.38,41.38,0,0,0,14.75,2.22C51,89.8,46.64,83.74,45.33,82.73Z"/><path class="cls-4" d="M13.49,35.26,35.31,51.32a4.75,4.75,0,0,1,1.12,6.38h0a4.24,4.24,0,0,1-6.09,1.08L8.53,42.72A4.76,4.76,0,0,1,7.4,36.33h0A4.25,4.25,0,0,1,13.49,35.26Z"/><path class="cls-4" d="M38,42l7.81,5.76a2.82,2.82,0,0,1,.67,3.8h0a2.52,2.52,0,0,1-3.62.64l-7.82-5.75a2.85,2.85,0,0,1-.67-3.81h0A2.53,2.53,0,0,1,38,42Z"/></g></g></svg>