<svg xmlns="http://www.w3.org/2000/svg" viewBox="0 0 154.12 154.12"><defs><style>.cls-1{fill:#3a6338;opacity:0.36;}.cls-2{fill:#8057bc;}.cls-3{fill:#033c27;}.cls-4{fill:#01190e;}.cls-5{fill:#0b1f18;}.cls-6{fill:#040c09;}</style></defs><title>Fichier 3</title><g id="Calque_2" data-name="Calque 2"><g id="planète3"><circle class="cls-1" cx="77.06" cy="77.06" r="77.06"/><rect class="cls-2" x="103.29" y="28.42" width="5.1" height="5.1" rx="2.55" transform="translate(212.24 60.03) rotate(178.96)"/><ellipse class="cls-3" cx="76.84" cy="78.31" rx="65.43" ry="63.87" transform="translate(-1.41 1.41) rotate(-1.04)"/><path class="cls-4" d="M43.25,23.52S1.75,102.42,82.8,141.75c0,0-56.42,4.59-69.39-47.46C1.43,46.19,43.25,23.52,43.25,23.52Z"/><rect class="cls-5" x="86.28" y="24.3" width="13.68" height="9.46" rx="4.73" transform="translate(186.76 56.37) rotate(178.96)"/><rect class="cls-5" x="13.43" y="84.34" width="48.84" height="10.24" rx="5.12" transform="translate(77.32 178.21) rotate(178.96)"/><path class="cls-6" d="M18.46,84.69l15.64-.28,2.76,10.18-18.22.33a5.14,5.14,0,0,1-5.21-5h0A5.13,5.13,0,0,1,18.46,84.69Z"/><rect class="cls-5" x="71.03" y="64.85" width="48.84" height="10.24" rx="5.12" transform="translate(192.16 138.2) rotate(178.96)"/><path class="cls-5" d="M27.83,35.79l29.23-.53a5.14,5.14,0,0,1,5.21,5h0a5.13,5.13,0,0,1-5,5.21l-35.69.65c-.4,0-.9.15-1.18-.12A64,64,0,0,1,27.83,35.79Z"/><rect class="cls-5" x="108.03" y="78.27" width="14.18" height="5.1" rx="2.55" transform="translate(231.69 159.55) rotate(178.96)"/><rect class="cls-5" x="72.54" y="117.19" width="14.03" height="6.53" rx="3.26"/><rect class="cls-5" x="98.92" y="37.16" width="14.63" height="3.56" rx="1.78"/><rect class="cls-5" x="83.79" y="106.15" width="23.06" height="5.81" rx="2.9"/><path class="cls-6" d="M38.32,35.6s-2.94,9-2.94,10.29l-15,.13s5.79-9.57,7.46-10.23Z"/></g></g></svg>