<svg xmlns="http://www.w3.org/2000/svg" viewBox="0 0 124.74 121.22"><defs><style>.cls-1{fill:#0b2103;opacity:0.88;}.cls-2{fill:#113a04;opacity:0.42;}.cls-3{fill:#02b20f;}.cls-4{fill:#8af70b;}.cls-5{fill:#fdd503;}.cls-6{fill:#7dce0b;}.cls-7{fill:#0c6d11;}.cls-8{fill:#45ce48;stroke:#45ce48;}.cls-8,.cls-9{stroke-miterlimit:10;}.cls-9{fill:#55a355;stroke:#55a355;}</style></defs><title>Fichier 1</title><g id="Calque_2" data-name="Calque 2"><g id="planète_1" data-name="planète 1"><ellipse class="cls-1" cx="62.37" cy="60.61" rx="62.37" ry="60.61"/><ellipse class="cls-2" cx="61.71" cy="60.21" rx="52.3" ry="50.56"/><path class="cls-3" d="M19.08,61.43C19,37.9,38.22,18.75,62,18.66l.33,85.2C38.55,104,19.17,85,19.08,61.43Z"/><path class="cls-4" d="M63.18,18.48l-1.6,4.08,1,81.28c23.82,0,43.13-19.08,43.13-42.6A42.45,42.45,0,0,0,63.18,18.48Z"/><rect class="cls-4" x="52.96" y="32.36" width="15.94" height="12.99"/><rect class="cls-4" x="54.81" y="68.02" width="15.94" height="12.99"/><path class="cls-5" d="M63.28,95.43c-.13,0-5.48-.52-5.48-.52l.44,8.77a40.59,40.59,0,0,0,4.13.18S63.41,95.47,63.28,95.43Z"/><path class="cls-6" d="M88.76,95a44,44,0,0,1-36.05,7.84l5.54-7.23L64,92.36S66,94.21,88.76,95Z"/><path class="cls-7" d="M63,92.1S15,73.7,53.88,19.43c0,0-23.56,2.14-33.15,28.78-6.55,18.2,3.67,46,28.49,53.57Z"/><path class="cls-8" d="M60.5,86.83H41.62a4.55,4.55,0,1,0,0,9.09h8.52a4,4,0,0,0-4,4c0,.24.06.47.07.7,0,.69,11.55,3.45,12.14,2.81,1-1,2.14-2,2.14-3.51a4,4,0,0,0-4-4H60.5a4.55,4.55,0,1,0,0-9.09Z"/><path class="cls-8" d="M37,44.18H47.8a4.1,4.1,0,1,0,0,8.2H60.51a4.19,4.19,0,0,0-4.18,4.18v.38a4.19,4.19,0,0,0,4.18,4.18H50.27a4.08,4.08,0,0,0,0,8.16h20a4.08,4.08,0,1,0,0-8.16h-7a4.19,4.19,0,0,0,4.17-4.18v-.38a4.19,4.19,0,0,0-4.17-4.18H78.06a4.1,4.1,0,0,0,0-8.2H53.36a4.09,4.09,0,0,0,4.08-4.08v-.54a4.08,4.08,0,0,0-4.08-4.08H37A4.09,4.09,0,0,0,33,39.56v.54A4.1,4.1,0,0,0,37,44.18Z"/><path class="cls-8" d="M78.11,78.67H54.47a4.61,4.61,0,0,0,0-9.21H38a4.61,4.61,0,0,0,0,9.21H48.21a4,4,0,0,0,0,8.1h29.9a4,4,0,0,0,0-8.1Z"/><path class="cls-8" d="M44,35.19H67.46a4.11,4.11,0,0,0,4.1-3.39,4,4,0,0,0-4-4.66H66.7L64.53,27a5,5,0,0,1-2.33-4.36v-.37a4.48,4.48,0,0,1,1.88-3.64c-.46-.18-10.11.79-10.11.79a41.94,41.94,0,0,0-17.65,8h0C36,33.28,42.47,35.19,44,35.19Z"/><path class="cls-4" d="M68.07,52.56H65.54c-1.38,0-2.51,1.8-2.51,4v.38c0,2.21,1.13,4,2.51,4h2.53c1.39,0,2.52-1.8,2.52-4v-.38C70.59,54.36,69.46,52.56,68.07,52.56Z"/><path class="cls-3" d="M58.26,52.56H55.73c-1.38,0-2.51,1.8-2.51,4v.38c0,2.21,1.13,4,2.51,4h2.53c1.39,0,2.52-1.8,2.52-4v-.38C60.78,54.36,59.65,52.56,58.26,52.56Z"/><path class="cls-9" d="M64.76,93a4.58,4.58,0,0,1-4.26,3H56.57a4,4,0,0,1,4,4c0,1.52-1.17,2.46-2.14,3.51-.09.1.22-.5-.3-.54l.29.33a4.73,4.73,0,0,0,2.15-3.3,3.54,3.54,0,0,0-3.79-4c-.14,0,4.58.17,6.12-.67"/><path class="cls-9" d="M58.39,103.39c1-1,2.14-2,2.14-3.51a4,4,0,0,0-4-4H60.5a4.58,4.58,0,0,0,4.26-3,39.86,39.86,0,0,1-11.31-6.13H41.76a4.65,4.65,0,0,0-4.67,4.09,4.57,4.57,0,0,0,4.53,5l6.71.21A5.31,5.31,0,0,0,46,100.66a30.84,30.84,0,0,0,4.43,1.59,15.39,15.39,0,0,0,2.85.61C55.18,103.09,58.18,103.59,58.39,103.39Z"/><path class="cls-9" d="M33.43,74.06A4.62,4.62,0,0,0,38,78.67h7.55a36.52,36.52,0,0,1-4.94-9.21H38A4.61,4.61,0,0,0,33.43,74.06Z"/><path class="cls-9" d="M44.16,82.72a4.06,4.06,0,0,0,4.05,4h5.17a40,40,0,0,1-7.33-7.47A4.06,4.06,0,0,0,44.16,82.72Z"/><path class="cls-9" d="M32.88,39.66v.56A4.16,4.16,0,0,0,37,44.42H40.8a68.8,68.8,0,0,1,3.15-9H37A4.16,4.16,0,0,0,32.88,39.66Z"/><path class="cls-9" d="M43.92,35.15h.16c2.84-6.5,8.05-13.94,14.76-16.36-.89.08-2.32.24-3,.31a50.48,50.48,0,0,0-7.23,1.24A40.29,40.29,0,0,0,36.24,27.1C35.89,33.19,42.39,35.15,43.92,35.15Z"/><rect class="cls-8" x="80.29" y="62.12" width="17.01" height="7.16" rx="3.58"/><rect class="cls-8" x="75.55" y="28.24" width="8.88" height="7.17" rx="3.59"/></g></g></svg>