<svg xmlns="http://www.w3.org/2000/svg" viewBox="0 0 131.18 131.18"><defs><style>.cls-1,.cls-2{fill:#494947;}.cls-1{opacity:0.47;}.cls-3,.cls-8{fill:#b0b5b5;}.cls-3{stroke:#b0b5b5;}.cls-3,.cls-4,.cls-7{stroke-miterlimit:10;}.cls-4{fill:#8b8e8e;stroke:#8b8e8e;}.cls-5{fill:#6b6b68;}.cls-6{fill:#8bcc66;}.cls-7{fill:none;stroke:#445bbc;}</style></defs><title>Fichier 9</title><g id="Calque_2" data-name="Calque 2"><g id="planète9"><circle class="cls-1" cx="65.59" cy="65.59" r="65.59"/><circle class="cls-2" cx="65.51" cy="65.37" r="60.4"/><ellipse class="cls-3" cx="65.18" cy="65.07" rx="55.4" ry="54.36" transform="translate(-2.5 2.61) rotate(-2.25)"/><path class="cls-4" d="M52.58,11.83s-50.72,52.65.48,106.54c0,0-47-10.86-43.14-57.32C13.4,19,52.58,11.83,52.58,11.83Z"/><rect class="cls-5" x="47.23" y="50.45" width="32.9" height="9.29" rx="3.37" transform="matrix(1, -0.04, 0.04, 1, -2.11, 2.54)"/><path class="cls-5" d="M115.77,89.49a12.15,12.15,0,0,0,.87-2.34l-5,.19L62.59,89.27a4.68,4.68,0,0,0-4.48,4.85h0A4.7,4.7,0,0,0,63,98.6l32.52-1.28a6.51,6.51,0,0,0-2.54,5.39h0a6.45,6.45,0,0,0,1,3.19l-18.47.73a4.13,4.13,0,0,0,.32,8.26l14-.55S104,109.84,115.77,89.49Z"/><path class="cls-5" d="M120.39,75.22l-50.22,2A4.37,4.37,0,0,1,65.64,73h0a4.37,4.37,0,0,1,4.19-4.53l50.21-2C122.44,66.4,120.39,75.22,120.39,75.22Z"/><rect class="cls-6" x="77.95" y="49.98" width="41.57" height="8.71" rx="3.65" transform="translate(-2.06 3.92) rotate(-2.25)"/><rect class="cls-5" x="68.64" y="32.77" width="42.13" height="9.76" rx="4.09" transform="translate(-1.41 3.55) rotate(-2.25)"/><rect class="cls-5" x="108.13" y="53.38" width="7.19" height="16.73" rx="3.01" transform="translate(-2.34 4.43) rotate(-2.25)"/><path class="cls-5" d="M42.15,87.25l-8.47.33-19.27.75s-2.59-5.57-2.92-7.94l.26,0h0l30.08-1.18A4.06,4.06,0,0,1,46,83.05h0A4.06,4.06,0,0,1,42.15,87.25Z"/><line class="cls-7" x1="75.27" y1="51.07" x2="75.27" y2="51.07"/><path class="cls-5" d="M117.59,47.11c-.57-1.7-1.17-3.27-1.78-4.7a5.47,5.47,0,0,1-2.21.56l-5.22.2a5.59,5.59,0,0,1-5.52-3.89h-.11a6.68,6.68,0,0,0,.52,13.35l8.32-.33A6.69,6.69,0,0,1,117.59,47.11Z"/><path class="cls-5" d="M105.68,32.14l4.06-.16s14.63,14.56,11.08,41.88L112,68.77l2-8.86L111.75,47,102,42.83Z"/><path class="cls-6" d="M12.45,82.71s1.34,4.19,2.14,5.22"/><rect class="cls-8" x="73.51" y="42.59" width="29.91" height="7.96" rx="3.34" transform="translate(-1.76 3.51) rotate(-2.25)"/><rect class="cls-8" x="81.52" y="58.79" width="29.91" height="8.63" rx="3.61" transform="translate(-2.4 3.84) rotate(-2.25)"/><path class="cls-6" d="M10.33,72.77h0"/><path class="cls-2" d="M30.51,79.58a76.11,76.11,0,0,0,2.17,8l-19.27.75S11,82.4,10.49,80.39Z"/><rect class="cls-3" x="40.82" y="89.35" width="32.17" height="9.64" rx="4.82" transform="translate(115.43 187.34) rotate(179.01)"/><rect class="cls-3" x="33.33" y="61.17" width="32.17" height="9.64" rx="4.82" transform="translate(99.96 131.12) rotate(179.01)"/><rect class="cls-3" x="72.36" y="49.72" width="44.25" height="9.78" rx="4.89" transform="translate(189.9 107.57) rotate(179.01)"/><rect class="cls-5" x="42.5" y="25.43" width="17.22" height="5.62" rx="1.8" transform="matrix(-1, 0.02, -0.02, -1, 102.69, 55.59)"/><rect class="cls-5" x="83.65" y="49.79" width="13.84" height="9.66" rx="4.19"/><rect class="cls-5" x="67.3" y="15.92" width="20.08" height="5.03" rx="2.52"/><rect class="cls-5" x="45.56" y="89.55" width="20.08" height="8.95" rx="4.07"/><rect class="cls-5" x="53.06" y="107.55" width="16.33" height="7.34" rx="3.67"/><path class="cls-3" d="M65.94,114.89H62.87a3.47,3.47,0,0,1-3.46-3.46V111a3.46,3.46,0,0,1,3.46-3.46h3.07A3.47,3.47,0,0,1,69.4,111v.42A3.47,3.47,0,0,1,65.94,114.89Z"/><rect class="cls-5" x="35.32" y="51.84" width="10.24" height="9.31" rx="3.67"/><path class="cls-3" d="M42.43,61.15h0A3.14,3.14,0,0,1,39.29,58V55a3.14,3.14,0,0,1,3.14-3.13h0A3.14,3.14,0,0,1,45.56,55V58A3.14,3.14,0,0,1,42.43,61.15Z"/></g></g></svg>