<svg xmlns="http://www.w3.org/2000/svg" viewBox="0 0 236.59 236.59"><defs><style>.cls-1{fill:#304a9e;}.cls-1,.cls-2,.cls-3,.cls-6{stroke:#445bbc;stroke-miterlimit:10;}.cls-1,.cls-2{opacity:0.36;}.cls-2{fill:#071951;}.cls-3,.cls-8{fill:#445bbc;}.cls-4{fill:#253a7c;}.cls-5{fill:#8bcc66;}.cls-6{fill:none;}.cls-7{fill:#5d8444;}</style></defs><title>Fichier 2</title><g id="Calque_2" data-name="Calque 2"><g id="planète2"><circle class="cls-1" cx="118.3" cy="118.3" r="117.8"/><circle class="cls-2" cx="118.43" cy="118.7" r="108.48"/><ellipse class="cls-3" cx="118.48" cy="119.25" rx="100.02" ry="97.63" transform="translate(-2.58 2.62) rotate(-1.25)"/><path class="cls-4" d="M140,215.24s92.71-93,2.46-191.33c0,0,84,21,75.68,104.28C210.57,203.52,140,215.24,140,215.24Z"/><rect class="cls-5" x="132.12" y="37.56" width="20.91" height="14.45" rx="7.23" transform="translate(286.1 86.43) rotate(178.75)"/><rect class="cls-5" x="109.46" y="177.66" width="20.91" height="14.45" rx="7.23" transform="translate(243.86 367.11) rotate(178.75)"/><path class="cls-5" d="M28.93,73.82A21.62,21.62,0,0,0,27.3,78l8.94-.19,88.18-1.93a8.41,8.41,0,0,0,8.19-8.57h0a8.4,8.4,0,0,0-8.56-8.19L65.61,60.39a11.67,11.67,0,0,0,4.73-9.6h0A11.55,11.55,0,0,0,68.64,45l33.2-.73a7.42,7.42,0,1,0-.33-14.84L76.41,30S50.8,37.65,28.93,73.82Z"/><path class="cls-5" d="M20.2,99.3l90.23-2a7.87,7.87,0,0,1,8,7.67h0a7.86,7.86,0,0,1-7.67,8l-90.22,2C16.23,115.07,20.2,99.3,20.2,99.3Z"/><rect class="cls-5" x="21.1" y="129.65" width="74.66" height="15.65" rx="7.82" transform="translate(119.86 273.63) rotate(178.75)"/><rect class="cls-5" x="36.3" y="158.95" width="75.66" height="17.53" rx="8.77" transform="translate(151.92 333.77) rotate(178.75)"/><rect class="cls-5" x="28.87" y="108.74" width="12.92" height="30.05" rx="6.46" transform="translate(73.36 246.72) rotate(178.75)"/><path class="cls-5" d="M161.07,80.14l15.22-.33,34.62-.75s4.48,10.09,5,14.36l-.47,0h0l-54.05,1.18a7.29,7.29,0,0,1-7.42-7.1h0A7.28,7.28,0,0,1,161.07,80.14Z"/><line class="cls-6" x1="100.47" y1="144.07" x2="100.47" y2="144.07"/><path class="cls-5" d="M143.52,148l39.5-.31a14,14,0,0,0-3.26,9.52h0a15.92,15.92,0,0,0,1.11,5.79l-22.44.17c-2.76,0-5,3.38-5,7.47s2.32,7.4,5.08,7.38l23.72-.19a2.78,2.78,0,0,0,.58,0l17.44-.38s22.19-25,18-70.42c0,0-.49,0-1.41,0l-6.76.14a7.41,7.41,0,0,0-7.22,7.54,7.3,7.3,0,0,0,.71,3l-36.71.8a9.44,9.44,0,0,0-9.19,9.61h0a9.09,9.09,0,0,0,.56,3l-14.87.12c-3.11,0-5.63,3.81-5.6,8.42h0C137.83,144.27,140.41,148,143.52,148Z"/><path class="cls-7" d="M177.94,147.73l5.08,0a14,14,0,0,0-3.26,9.52h0a15.92,15.92,0,0,0,1.11,5.79l-8.66.07L165.93,178l16.34-.13a2.78,2.78,0,0,0,.58,0l17.44-.38s22.19-25,18-70.42c0,0-.49,0-1.41,0l-6.76.14a7.41,7.41,0,0,0-7.22,7.54,7.3,7.3,0,0,0,.71,3l-21.61.47Z"/><path class="cls-5" d="M24.35,149.86c1,3.07,2,5.9,3,8.5a9.82,9.82,0,0,1,4-.94l9.38-.2a10,10,0,0,1,9.79,7.17h.21a12,12,0,0,0-.53-24l-14.94.33A12,12,0,0,1,24.35,149.86Z"/><path class="cls-5" d="M45.27,177.11l-7.3.16s-25.81-26.6-18.6-75.55l15.68,9.43L31.21,127l3.63,23.27L52.24,158Z"/><path class="cls-5" d="M214.26,89.21s-2.28-7.57-3.69-9.44"/><rect class="cls-8" x="49.76" y="144.59" width="53.72" height="14.3" rx="7.15" transform="translate(156.55 301.77) rotate(178.75)"/><rect class="cls-8" x="35.91" y="114.06" width="53.72" height="15.49" rx="7.15" transform="translate(128.18 242.2) rotate(178.75)"/><path class="cls-5" d="M217.75,107.13h0"/><path class="cls-7" d="M179.94,94.24a137.31,137.31,0,0,0-3.65-14.43l34.62-.75s4.16,10.72,5,14.36Z"/></g></g></svg>