<svg xmlns="http://www.w3.org/2000/svg" viewBox="0 0 133.45 133.45"><defs><style>.cls-1{fill:#6727e2;opacity:0.36;}.cls-2{fill:#988fd8;}.cls-3{fill:#594d93;}.cls-4{fill:#8057bc;}.cls-5{fill:#480793;}.cls-6{fill:none;stroke:#445bbc;stroke-miterlimit:10;}</style></defs><title>Fichier 4</title><g id="Calque_2" data-name="Calque 2"><g id="planète4"><circle class="cls-1" cx="66.73" cy="66.73" r="66.73"/><circle class="cls-1" cx="66.8" cy="66.96" r="61.45"/><ellipse class="cls-2" cx="66.83" cy="67.27" rx="56.66" ry="55.3" transform="translate(-1.21 1.22) rotate(-1.04)"/><path class="cls-3" d="M17.06,93.8s65,36.17,104.65-28.22c0,0,3.47,50.68-49.42,57.77C34.6,128.41,17.06,93.8,17.06,93.8Z"/><rect class="cls-4" x="74.71" y="21.04" width="11.85" height="8.19" rx="4.09" transform="translate(161.71 48.81) rotate(178.96)"/><rect class="cls-4" x="61.58" y="100.36" width="11.85" height="8.19" rx="4.09" transform="translate(136.89 207.66) rotate(178.96)"/><path class="cls-5" d="M72.93,102.47c.27-.07.48,1.2.49,1.87h0a4.1,4.1,0,0,1-4,4.17l-3.65.07a4.11,4.11,0,0,1-4.17-4h0c0-.25-.18-.77.05-.72C65.05,104.45,71.4,102.83,72.93,102.47Z"/><path class="cls-4" d="M16.2,41.34a12.5,12.5,0,0,0-.93,2.36l5.06-.09,50-.91a4.75,4.75,0,0,0,4.66-4.83h0a4.75,4.75,0,0,0-4.83-4.66l-33.1.6a6.6,6.6,0,0,0,2.69-5.43h0a6.49,6.49,0,0,0-.94-3.26l18.8-.34a4.21,4.21,0,1,0-.15-8.41l-14.22.25S28.66,20.9,16.2,41.34Z"/><rect class="cls-4" x="11.63" y="73.03" width="42.29" height="8.86" rx="4.43" transform="translate(66.95 154.31) rotate(178.96)"/><rect class="cls-4" x="89.44" y="24.61" width="4.42" height="4.42" rx="2.21" transform="matrix(-1, 0.02, -0.02, -1, 183.78, 51.98)"/><line class="cls-6" x1="56.57" y1="81.28" x2="56.57" y2="81.28"/><path class="cls-4" d="M81,83.6l22.38-.09a7.88,7.88,0,0,0-1.87,5.39h0a9,9,0,0,0,.61,3.28l-12.71,0c-1.56,0-2.83,1.91-2.82,4.22s1.29,4.2,2.86,4.19l13.44,0a1.67,1.67,0,0,0,.32,0l9.88-.17s12.63-14.09,10.35-39.85c0,0-.28,0-.8,0l-3.84.07a4.18,4.18,0,0,0-4.1,4.25,4,4,0,0,0,.4,1.69L94.25,67A5.34,5.34,0,0,0,89,72.4h0a5.81,5.81,0,0,0,.31,1.68l-8.42,0c-1.76,0-3.2,2.15-3.19,4.76h0C77.73,81.48,79.19,83.61,81,83.6Z"/><path class="cls-5" d="M101.46,89a7.53,7.53,0,0,0,.61,3.14l-4.9,0L86.75,98l2.48,2.6,13.61,0a1.67,1.67,0,0,0,.32,0l9.88-.17a52.76,52.76,0,0,0,10.62-34.2S105.72,86,101.46,89Z"/><path class="cls-5" d="M87.3,97.91l2.1,2.73s-1.83.11-2.65-2.61Z"/></g></g></svg>