<svg xmlns="http://www.w3.org/2000/svg" viewBox="0 0 114.98 114.98"><defs><style>.cls-1,.cls-3{fill:#f89d2a;stroke:#f89d2a;}.cls-1,.cls-3,.cls-4,.cls-6{stroke-miterlimit:10;}.cls-1{opacity:0.26;}.cls-2{fill:#fc9206;opacity:0.45;}.cls-4{fill:#c56f32;stroke:#c56f32;}.cls-5{fill:#e84325;}.cls-6{fill:none;stroke:#445bbc;}.cls-7{fill:#b82f2f;}.cls-8{fill:#8bcc66;}</style></defs><title>Fichier 10</title><g id="Calque_2" data-name="Calque 2"><g id="planète10"><circle class="cls-1" cx="57.49" cy="57.49" r="56.97"/><circle class="cls-2" cx="57.49" cy="57.28" r="52.47"/><ellipse class="cls-3" cx="57.56" cy="57.02" rx="47.22" ry="48.38" transform="translate(-14.61 93.85) rotate(-71.77)"/><path class="cls-4" d="M63.25,9.79S6,37.22,31.25,96.63c0,0-34.93-23.12-17.68-59.76C29.17,3.74,63.25,9.79,63.25,9.79Z"/><rect class="cls-5" x="29.5" y="83.6" width="10.11" height="6.99" rx="2.57" transform="translate(28.98 -6.44) rotate(18.23)"/><path class="cls-5" d="M91.06,92.19a10.68,10.68,0,0,0,1.42-1.64l-4.11-1.36L47.85,75.85a4.05,4.05,0,0,0-5.11,2.58h0a4.06,4.06,0,0,0,2.58,5.12l26.85,8.84A5.65,5.65,0,0,0,68.46,96h0a5.63,5.63,0,0,0-.15,2.9l-15.26-5a3.59,3.59,0,0,0-2.24,6.83l11.53,3.79S75.25,105.15,91.06,92.19Z"/><rect class="cls-5" x="67.73" y="60.55" width="36.11" height="7.57" rx="2.78" transform="translate(24.43 -23.61) rotate(18.23)"/><rect class="cls-5" x="65.37" y="43.32" width="36.59" height="8.48" rx="3.12" transform="matrix(0.95, 0.31, -0.31, 0.95, 19.08, -23.79)"/><line class="cls-6" x1="69.78" y1="48.62" x2="69.78" y2="48.62"/><path class="cls-5" d="M50.78,39.88,32.72,33.64a6.67,6.67,0,0,0,3-3.81h0A7.49,7.49,0,0,0,36.17,27l10.26,3.54c1.26.44,2.82-.73,3.47-2.6s.14-3.75-1.13-4.19L37.93,20l-.26-.11-8-2.64s-14.15,7.79-19.57,29.2c0,0,.22.09.65.23l3.1,1A3.57,3.57,0,0,0,18.51,44l16.87,5.56a4.56,4.56,0,0,0,5.74-2.9h0a4.75,4.75,0,0,0,.22-1.44l6.8,2.35c1.42.49,3.18-.83,3.91-2.94h0C52.77,42.49,52.2,40.37,50.78,39.88Z"/><path class="cls-7" d="M35,34.45l-2.32-.81a6.67,6.67,0,0,0,3-3.81h0A7.49,7.49,0,0,0,36.17,27l4,1.37L45.4,22.6,37.93,20l-.26-.11-8-2.64s-14.15,7.79-19.57,29.2c0,0,.22.09.65.23l3.1,1A3.57,3.57,0,0,0,18.51,44l9.93,3.27Z"/><path class="cls-8" d="M9,55.27a25.63,25.63,0,0,0,.16,4.9"/></g></g></svg>