<svg xmlns="http://www.w3.org/2000/svg" viewBox="0 0 235.6 235.6"><defs><style>.cls-1{fill:#932926;opacity:0.36;}.cls-2{fill:#ad2809;}.cls-3{fill:#821c08;}.cls-4{fill:#e06436;}.cls-5{fill:#a82a14;}.cls-6{fill:none;stroke:#445bbc;stroke-miterlimit:10;}.cls-7{fill:#8bcc66;}</style></defs><title>Fichier 5</title><g id="Calque_2" data-name="Calque 2"><g id="planète5"><circle class="cls-1" cx="117.8" cy="117.8" r="117.8"/><circle class="cls-1" cx="117.62" cy="118.19" r="108.48"/><ellipse class="cls-2" cx="118.02" cy="119.3" rx="97.63" ry="100.02" transform="translate(-49.53 128.71) rotate(-48.52)"/><path class="cls-3" d="M69.07,205.09S199.78,198.9,201.12,67c0,0,46.83,71.23-16,126.52C128.38,243.51,69.07,205.09,69.07,205.09Z"/><rect class="cls-4" x="175.06" y="73.05" width="20.91" height="14.45" rx="7.23" transform="translate(271.35 263.28) rotate(-138.52)"/><rect class="cls-4" x="80.67" y="168.29" width="20.91" height="14.45" rx="7.23" transform="matrix(-0.75, -0.66, 0.66, -0.75, 43.15, 367.38)"/><path class="cls-4" d="M60.05,37.22,127.66,97a7.85,7.85,0,0,1,.69,11.06h0a7.87,7.87,0,0,1-11.07.69L49.66,49C46.43,46.12,60.05,37.22,60.05,37.22Z"/><rect class="cls-4" x="24.16" y="82.7" width="74.66" height="15.65" rx="7.82" transform="translate(47.61 199.08) rotate(-138.52)"/><rect class="cls-4" x="14.67" y="114.63" width="75.66" height="17.53" rx="8.77" transform="translate(10.11 250.62) rotate(-138.52)"/><rect class="cls-4" x="47.36" y="49.75" width="12.92" height="30.05" rx="6.46" transform="translate(51.24 148.96) rotate(-138.52)"/><path class="cls-4" d="M175.11,118.79l11.4,10.09,25.94,22.94s-3.56,10.45-6.07,13.93l-.38-.28h0l-40.5-35.8a7.29,7.29,0,0,1-.64-10.25h0A7.29,7.29,0,0,1,175.11,118.79Z"/><rect class="cls-4" x="194.14" y="91.76" width="7.8" height="7.8" rx="3.9" transform="translate(283.06 298.49) rotate(-138.52)"/><path class="cls-5" d="M201.17,92.82h0a4,4,0,0,1,.32,5.64h0a4,4,0,0,1-4.67,1l1.47-7.64A4,4,0,0,1,201.17,92.82Z"/><line class="cls-6" x1="87.22" y1="124.63" x2="87.22" y2="124.63"/><path class="cls-4" d="M27.37,77.24c-1.37,2.9-2.54,5.69-3.53,8.31a9.74,9.74,0,0,1,3.56,2l7,6.21a10,10,0,0,1,2.33,11.91l.15.14a12,12,0,1,0,15.89-18L41.6,78A12,12,0,0,1,27.37,77.24Z"/><path class="cls-4" d="M25.66,111.39l-5.48-4.83S19.29,69.5,57.79,38.44L62.91,56,49.35,65,36.22,84.58l7.51,17.52Z"/><path class="cls-7" d="M208,161.55s3.47-7.11,3.7-9.44"/><rect class="cls-2" x="38.31" y="106.2" width="53.72" height="14.3" rx="7.15" transform="translate(38.93 241.44) rotate(-138.52)"/><rect class="cls-2" x="47.01" y="72.8" width="53.72" height="15.61" rx="7.15" transform="translate(75.82 189.91) rotate(-138.52)"/><path class="cls-7" d="M198.43,177.08h0"/><path class="cls-5" d="M180.13,142.63a139,139,0,0,0,7.12-13.07l25.93,22.94s-4.21,10.7-6.06,13.93Z"/></g></g></svg>