<svg xmlns="http://www.w3.org/2000/svg" viewBox="0 0 105.33 256.82"><defs><style>.cls-1,.cls-2{fill:#fff;}.cls-1{stroke:#fff;stroke-miterlimit:10;}.cls-3{fill:#f8cb46;}.cls-4{fill:#f1b443;}.cls-5{fill:#e37939;}.cls-6{fill:#545790;}.cls-7{fill:#2c3147;}.cls-8{fill:#e4e7f3;}.cls-9{fill:#a9add3;}.cls-10{fill:#213b42;}.cls-11{fill:#192e33;}.cls-12{fill:#2b4c51;}.cls-13{fill:#bbe0eb;}</style></defs><title>Fichier 3</title><g id="Calque_2" data-name="Calque 2"><g id="ETOILES_NUAGE" data-name="ETOILES NUAGE"><ellipse class="cls-1" cx="20.89" cy="180.69" rx="4.18" ry="1.71"/><ellipse class="cls-2" cx="22.29" cy="137.87" rx="1.39" ry="0.86"/><ellipse class="cls-2" cx="69.64" cy="127.6" rx="1.39" ry="0.86"/><ellipse class="cls-1" cx="23.68" cy="178.98" rx="4.18" ry="1.71"/><ellipse class="cls-2" cx="25.07" cy="136.16" rx="1.39" ry="0.86"/></g><g id="FUSÉE"><path id="fireeee" class="cls-3" d="M61,187.81l3.61,1.61S80.91,206,68.85,235.25c0,0-5.28-4.27-6.95-16.57,0,0-1.44,33.6-12.5,38.14,0,0-11.11-17.29-10.27-28.81,0,0-1.3,11.31-8.66,13,0,0-11.76-31.25,9.59-52.27Z"/><path id="fireeee-2" data-name="fireeee" class="cls-4" d="M56,187.24l7.82,2.48s12.8,13.71,3.29,34.35c0,0-4.65-3.14-6.05-12.27,0,0-1.49,25-11.31,28.4,0,0-9.74-12.77-8.92-21.32,0,0-1.22,8.4-7.75,9.69,0,0-4.78-22.45,7.31-39.14Z"/><path id="fireeee-3" data-name="fireeee" class="cls-5" d="M56.2,188.43,64.75,193s7.14,10.87-1.07,18.32c0,0-3.16-1.83-4.08-7.19,0,0-1.12,14.68-7.83,16.75,0,0-6.59-7.47-6-12.5,0,0-.87,4.95-5.32,5.73,0,0-7.3-14.73,1-24.6Z"/><path id="turbo" class="cls-6" d="M66.73,181.61s2.5,7.09,2.51,7.18a3.65,3.65,0,0,1-2.78,3.9c-2.26.65-8.5.77-26.35-.49,0,0-7.69-1.06-6.63-4.82.54-1.93,2.48-6.45,2.48-6.45Z"/><path id="ombre" class="cls-7" d="M61.3,181.91l5.43-.3,2.51,7.18a3.72,3.72,0,0,1-2.78,3.9s-2.67.62-10.93.49,2.18-11.31,2.18-11.31Z"/><path id="fusée-2" data-name="fusée" class="cls-8" d="M31.17,181.47s-3.11.64-5.19-5.87S-13.17,80.91,46,3.08c0,0,5.56-6.32,10,.59,3.89,6,59.81,80.71,19.85,176.53,0,0-.76,1.66-4.19,1.81C69.79,182.09,31.17,181.47,31.17,181.47Z"/><path id="ombree" class="cls-9" d="M59.82,43.38s2.44,22.24-9.75,24.76l-5,38.92a56.82,56.82,0,0,0,7.42,4.42c19.87,9.26,16.82,33.21,8.85,70.43l10.36.1s3.39,0,4.28-2,9.79-30.48,9.79-30.48S90.9,122.7,90.4,111.6s-2-41.36-12.05-65.1C78.35,46.5,67.55,43.66,59.82,43.38Z"/><path id="aile" class="cls-10" d="M51.17,204.54s-3.33.54-3.39-2.19c-.26-11-2-24.73-2-24.73s-5.53-29.69,6-29.24,6.8,29.35,6.8,29.35-4.33,22-4.6,24.59C53.92,202.32,53.88,204.43,51.17,204.54Z"/><path id="aileD" class="cls-11" d="M81.21,154.74a15,15,0,0,0,.41-2.1c.19-1.79,2-6,7.66-.82,7.36,6.83,17.88,29,15.78,47.06a7.35,7.35,0,0,1-.61,2.26c-.85,1.88-3,4.4-7.67,1.53a8.1,8.1,0,0,1-3.32-4c-.41-1-.85-2.15-1.07-2.86a5.84,5.84,0,0,0-.66-1.38c-1.37-2.11-2.72-5.62-10-9.09-4.6-2.19-6-5.28-6.2-7.58a7.75,7.75,0,0,1,.25-2.75Z"/><path id="aileG" class="cls-10" d="M21.47,155a13.31,13.31,0,0,1-.55-2.06c-.32-1.78-2.47-5.88-7.71-.29C6.34,160-2.62,182.82.72,200.73a7.82,7.82,0,0,0,.76,2.21c1,1.82,3.25,4.19,7.76,1a8.15,8.15,0,0,0,3-4.18c.33-1,.69-2.21.87-2.93a5.58,5.58,0,0,1,.55-1.42c1.22-2.2,2.33-5.8,9.34-9.76,4.44-2.5,5.62-5.68,5.67-8a7.84,7.84,0,0,0-.44-2.72Z"/><circle id="orbite" class="cls-12" cx="50.94" cy="88.04" r="19.92"/><path id="ombreee" class="cls-11" d="M50.07,68.14a19.71,19.71,0,0,1,15.49,6.37c6.89,7.34,6.8,17.19,1.9,24.65A19.87,19.87,0,0,1,45,107.06s20.62,1.26,19.79-17.52a50.69,50.69,0,0,0-1.37-7.64S60.05,71.05,50.07,68.14Z"/><circle id="vitre" class="cls-13" cx="50.72" cy="87.78" r="14.01"/><path id="swag" class="cls-12" d="M78.35,46.5S41.67,36.71,21,50.3l6.1-15.41A54.92,54.92,0,0,1,73,33.41Z"/><path id="ombre-2" data-name="ombre" class="cls-12" d="M46,3.08s4.79-6.61,9.43-.22S65.79,18.64,65.76,19.25s-20.14.32-20.14.32L33.48,22.05S41.82,7.61,46,3.08Z"/><path id="style" class="cls-12" d="M69.2,25.65s-16.92-9.4-38.77,2.09l3.34-6.19s14.86-10.12,32-2.3Z"/><path id="ombre-3" data-name="ombre" class="cls-11" d="M44.24,5.22l2.52-3s4.73-6.08,9.61,2,5.1,6.82,9.86,15.94l3,5.53S66,23.37,56.58,22.22C56.58,22.22,54.2,11.23,44.24,5.22Z"/><path id="ombre-4" data-name="ombre" class="cls-11" d="M58.21,29.47s9.17.88,14.75,3.94L78.35,46.5a138.19,138.19,0,0,0-18.53-3.12A36.68,36.68,0,0,0,58.21,29.47Z"/><path id="ombre-5" data-name="ombre" class="cls-9" d="M73,33.41,69.2,25.65a38,38,0,0,0-12.62-3.43l1.63,7.25C71.53,31.73,73,33.41,73,33.41Z"/><path id="ombre-6" data-name="ombre" class="cls-2" d="M48.44,76.13s-9,1.31-8.48,10.76C40,86.89,42.83,79.05,48.44,76.13Z"/><path id="ombre-7" data-name="ombre" class="cls-11" d="M51.72,148.38s1.08,27.48-.55,56.16a2.47,2.47,0,0,0,2.75-2.22C55.53,193.18,67.4,149.69,51.72,148.38Z"/></g></g></svg>